<?xml version="1.0" encoding="utf-8" standalone="no"?>
<!DOCTYPE svg PUBLIC "-//W3C//DTD SVG 1.1//EN"
  "http://www.w3.org/Graphics/SVG/1.1/DTD/svg11.dtd">
<!-- Created with matplotlib (https://matplotlib.org/) -->
<svg height="864pt" version="1.1" viewBox="0 0 864 864" width="864pt" xmlns="http://www.w3.org/2000/svg" xmlns:xlink="http://www.w3.org/1999/xlink">
 <defs>
  <style type="text/css">
*{stroke-linecap:butt;stroke-linejoin:round;}
  </style>
 </defs>
 <g id="figure_1">
  <g id="patch_1">
   <path d="M 0 864 
L 864 864 
L 864 0 
L 0 0 
z
" style="fill:#ffffff;"/>
  </g>
  <g id="axes_1">
   <g id="patch_2">
    <path d="M 108 400.189091 
L 412.363636 400.189091 
L 412.363636 103.68 
L 108 103.68 
z
" style="fill:#e5e5e5;"/>
   </g>
   <g id="matplotlib.axis_1">
    <g id="xtick_1">
     <g id="line2d_1">
      <path clip-path="url(#p9b5fff554e)" d="M 109.804527 400.189091 
L 109.804527 103.68 
" style="fill:none;stroke:#ffffff;stroke-linecap:square;stroke-width:1.5;"/>
     </g>
     <g id="line2d_2">
      <defs>
       <path d="M 0 0 
L 0 9 
" id="md07a66e8d9" style="stroke:#555555;stroke-width:1.875;"/>
      </defs>
      <g>
       <use style="fill:#555555;stroke:#555555;stroke-width:1.875;" x="109.804527" xlink:href="#md07a66e8d9" y="400.189091"/>
      </g>
     </g>
     <g id="text_1">
      <!-- 1970 -->
      <defs>
       <path d="M 12.40625 8.296875 
L 28.515625 8.296875 
L 28.515625 63.921875 
L 10.984375 60.40625 
L 10.984375 69.390625 
L 28.421875 72.90625 
L 38.28125 72.90625 
L 38.28125 8.296875 
L 54.390625 8.296875 
L 54.390625 0 
L 12.40625 0 
z
" id="DejaVuSans-49"/>
       <path d="M 10.984375 1.515625 
L 10.984375 10.5 
Q 14.703125 8.734375 18.5 7.8125 
Q 22.3125 6.890625 25.984375 6.890625 
Q 35.75 6.890625 40.890625 13.453125 
Q 46.046875 20.015625 46.78125 33.40625 
Q 43.953125 29.203125 39.59375 26.953125 
Q 35.25 24.703125 29.984375 24.703125 
Q 19.046875 24.703125 12.671875 31.3125 
Q 6.296875 37.9375 6.296875 49.421875 
Q 6.296875 60.640625 12.9375 67.421875 
Q 19.578125 74.21875 30.609375 74.21875 
Q 43.265625 74.21875 49.921875 64.515625 
Q 56.59375 54.828125 56.59375 36.375 
Q 56.59375 19.140625 48.40625 8.859375 
Q 40.234375 -1.421875 26.421875 -1.421875 
Q 22.703125 -1.421875 18.890625 -0.6875 
Q 15.09375 0.046875 10.984375 1.515625 
z
M 30.609375 32.421875 
Q 37.25 32.421875 41.125 36.953125 
Q 45.015625 41.5 45.015625 49.421875 
Q 45.015625 57.28125 41.125 61.84375 
Q 37.25 66.40625 30.609375 66.40625 
Q 23.96875 66.40625 20.09375 61.84375 
Q 16.21875 57.28125 16.21875 49.421875 
Q 16.21875 41.5 20.09375 36.953125 
Q 23.96875 32.421875 30.609375 32.421875 
z
" id="DejaVuSans-57"/>
       <path d="M 8.203125 72.90625 
L 55.078125 72.90625 
L 55.078125 68.703125 
L 28.609375 0 
L 18.3125 0 
L 43.21875 64.59375 
L 8.203125 64.59375 
z
" id="DejaVuSans-55"/>
       <path d="M 31.78125 66.40625 
Q 24.171875 66.40625 20.328125 58.90625 
Q 16.5 51.421875 16.5 36.375 
Q 16.5 21.390625 20.328125 13.890625 
Q 24.171875 6.390625 31.78125 6.390625 
Q 39.453125 6.390625 43.28125 13.890625 
Q 47.125 21.390625 47.125 36.375 
Q 47.125 51.421875 43.28125 58.90625 
Q 39.453125 66.40625 31.78125 66.40625 
z
M 31.78125 74.21875 
Q 44.046875 74.21875 50.515625 64.515625 
Q 56.984375 54.828125 56.984375 36.375 
Q 56.984375 17.96875 50.515625 8.265625 
Q 44.046875 -1.421875 31.78125 -1.421875 
Q 19.53125 -1.421875 13.0625 8.265625 
Q 6.59375 17.96875 6.59375 36.375 
Q 6.59375 54.828125 13.0625 64.515625 
Q 19.53125 74.21875 31.78125 74.21875 
z
" id="DejaVuSans-48"/>
      </defs>
      <g style="fill:#555555;" transform="translate(88.808277 425.226513)scale(0.165 -0.165)">
       <use xlink:href="#DejaVuSans-49"/>
       <use x="63.623047" xlink:href="#DejaVuSans-57"/>
       <use x="127.246094" xlink:href="#DejaVuSans-55"/>
       <use x="190.869141" xlink:href="#DejaVuSans-48"/>
      </g>
     </g>
    </g>
    <g id="xtick_2">
     <g id="line2d_3">
      <path clip-path="url(#p9b5fff554e)" d="M 169.955444 400.189091 
L 169.955444 103.68 
" style="fill:none;stroke:#ffffff;stroke-linecap:square;stroke-width:1.5;"/>
     </g>
     <g id="line2d_4">
      <g>
       <use style="fill:#555555;stroke:#555555;stroke-width:1.875;" x="169.955444" xlink:href="#md07a66e8d9" y="400.189091"/>
      </g>
     </g>
     <g id="text_2">
      <!-- 1980 -->
      <defs>
       <path d="M 31.78125 34.625 
Q 24.75 34.625 20.71875 30.859375 
Q 16.703125 27.09375 16.703125 20.515625 
Q 16.703125 13.921875 20.71875 10.15625 
Q 24.75 6.390625 31.78125 6.390625 
Q 38.8125 6.390625 42.859375 10.171875 
Q 46.921875 13.96875 46.921875 20.515625 
Q 46.921875 27.09375 42.890625 30.859375 
Q 38.875 34.625 31.78125 34.625 
z
M 21.921875 38.8125 
Q 15.578125 40.375 12.03125 44.71875 
Q 8.5 49.078125 8.5 55.328125 
Q 8.5 64.0625 14.71875 69.140625 
Q 20.953125 74.21875 31.78125 74.21875 
Q 42.671875 74.21875 48.875 69.140625 
Q 55.078125 64.0625 55.078125 55.328125 
Q 55.078125 49.078125 51.53125 44.71875 
Q 48 40.375 41.703125 38.8125 
Q 48.828125 37.15625 52.796875 32.3125 
Q 56.78125 27.484375 56.78125 20.515625 
Q 56.78125 9.90625 50.3125 4.234375 
Q 43.84375 -1.421875 31.78125 -1.421875 
Q 19.734375 -1.421875 13.25 4.234375 
Q 6.78125 9.90625 6.78125 20.515625 
Q 6.78125 27.484375 10.78125 32.3125 
Q 14.796875 37.15625 21.921875 38.8125 
z
M 18.3125 54.390625 
Q 18.3125 48.734375 21.84375 45.5625 
Q 25.390625 42.390625 31.78125 42.390625 
Q 38.140625 42.390625 41.71875 45.5625 
Q 45.3125 48.734375 45.3125 54.390625 
Q 45.3125 60.0625 41.71875 63.234375 
Q 38.140625 66.40625 31.78125 66.40625 
Q 25.390625 66.40625 21.84375 63.234375 
Q 18.3125 60.0625 18.3125 54.390625 
z
" id="DejaVuSans-56"/>
      </defs>
      <g style="fill:#555555;" transform="translate(148.959194 425.226513)scale(0.165 -0.165)">
       <use xlink:href="#DejaVuSans-49"/>
       <use x="63.623047" xlink:href="#DejaVuSans-57"/>
       <use x="127.246094" xlink:href="#DejaVuSans-56"/>
       <use x="190.869141" xlink:href="#DejaVuSans-48"/>
      </g>
     </g>
    </g>
    <g id="xtick_3">
     <g id="line2d_5">
      <path clip-path="url(#p9b5fff554e)" d="M 230.10636 400.189091 
L 230.10636 103.68 
" style="fill:none;stroke:#ffffff;stroke-linecap:square;stroke-width:1.5;"/>
     </g>
     <g id="line2d_6">
      <g>
       <use style="fill:#555555;stroke:#555555;stroke-width:1.875;" x="230.10636" xlink:href="#md07a66e8d9" y="400.189091"/>
      </g>
     </g>
     <g id="text_3">
      <!-- 1990 -->
      <g style="fill:#555555;" transform="translate(209.11011 425.226513)scale(0.165 -0.165)">
       <use xlink:href="#DejaVuSans-49"/>
       <use x="63.623047" xlink:href="#DejaVuSans-57"/>
       <use x="127.246094" xlink:href="#DejaVuSans-57"/>
       <use x="190.869141" xlink:href="#DejaVuSans-48"/>
      </g>
     </g>
    </g>
    <g id="xtick_4">
     <g id="line2d_7">
      <path clip-path="url(#p9b5fff554e)" d="M 290.257276 400.189091 
L 290.257276 103.68 
" style="fill:none;stroke:#ffffff;stroke-linecap:square;stroke-width:1.5;"/>
     </g>
     <g id="line2d_8">
      <g>
       <use style="fill:#555555;stroke:#555555;stroke-width:1.875;" x="290.257276" xlink:href="#md07a66e8d9" y="400.189091"/>
      </g>
     </g>
     <g id="text_4">
      <!-- 2000 -->
      <defs>
       <path d="M 19.1875 8.296875 
L 53.609375 8.296875 
L 53.609375 0 
L 7.328125 0 
L 7.328125 8.296875 
Q 12.9375 14.109375 22.625 23.890625 
Q 32.328125 33.6875 34.8125 36.53125 
Q 39.546875 41.84375 41.421875 45.53125 
Q 43.3125 49.21875 43.3125 52.78125 
Q 43.3125 58.59375 39.234375 62.25 
Q 35.15625 65.921875 28.609375 65.921875 
Q 23.96875 65.921875 18.8125 64.3125 
Q 13.671875 62.703125 7.8125 59.421875 
L 7.8125 69.390625 
Q 13.765625 71.78125 18.9375 73 
Q 24.125 74.21875 28.421875 74.21875 
Q 39.75 74.21875 46.484375 68.546875 
Q 53.21875 62.890625 53.21875 53.421875 
Q 53.21875 48.921875 51.53125 44.890625 
Q 49.859375 40.875 45.40625 35.40625 
Q 44.1875 33.984375 37.640625 27.21875 
Q 31.109375 20.453125 19.1875 8.296875 
z
" id="DejaVuSans-50"/>
      </defs>
      <g style="fill:#555555;" transform="translate(269.261026 425.226513)scale(0.165 -0.165)">
       <use xlink:href="#DejaVuSans-50"/>
       <use x="63.623047" xlink:href="#DejaVuSans-48"/>
       <use x="127.246094" xlink:href="#DejaVuSans-48"/>
       <use x="190.869141" xlink:href="#DejaVuSans-48"/>
      </g>
     </g>
    </g>
    <g id="xtick_5">
     <g id="line2d_9">
      <path clip-path="url(#p9b5fff554e)" d="M 350.408193 400.189091 
L 350.408193 103.68 
" style="fill:none;stroke:#ffffff;stroke-linecap:square;stroke-width:1.5;"/>
     </g>
     <g id="line2d_10">
      <g>
       <use style="fill:#555555;stroke:#555555;stroke-width:1.875;" x="350.408193" xlink:href="#md07a66e8d9" y="400.189091"/>
      </g>
     </g>
     <g id="text_5">
      <!-- 2010 -->
      <g style="fill:#555555;" transform="translate(329.411943 425.226513)scale(0.165 -0.165)">
       <use xlink:href="#DejaVuSans-50"/>
       <use x="63.623047" xlink:href="#DejaVuSans-48"/>
       <use x="127.246094" xlink:href="#DejaVuSans-49"/>
       <use x="190.869141" xlink:href="#DejaVuSans-48"/>
      </g>
     </g>
    </g>
    <g id="xtick_6">
     <g id="line2d_11">
      <path clip-path="url(#p9b5fff554e)" d="M 410.559109 400.189091 
L 410.559109 103.68 
" style="fill:none;stroke:#ffffff;stroke-linecap:square;stroke-width:1.5;"/>
     </g>
     <g id="line2d_12">
      <g>
       <use style="fill:#555555;stroke:#555555;stroke-width:1.875;" x="410.559109" xlink:href="#md07a66e8d9" y="400.189091"/>
      </g>
     </g>
     <g id="text_6">
      <!-- 2020 -->
      <g style="fill:#555555;" transform="translate(389.562859 425.226513)scale(0.165 -0.165)">
       <use xlink:href="#DejaVuSans-50"/>
       <use x="63.623047" xlink:href="#DejaVuSans-48"/>
       <use x="127.246094" xlink:href="#DejaVuSans-50"/>
       <use x="190.869141" xlink:href="#DejaVuSans-48"/>
      </g>
     </g>
    </g>
   </g>
   <g id="matplotlib.axis_2">
    <g id="ytick_1">
     <g id="line2d_13">
      <path clip-path="url(#p9b5fff554e)" d="M 108 357.983808 
L 412.363636 357.983808 
" style="fill:none;stroke:#ffffff;stroke-linecap:square;stroke-width:1.5;"/>
     </g>
     <g id="line2d_14">
      <defs>
       <path d="M 0 0 
L -9 0 
" id="m587f3ce99d" style="stroke:#555555;stroke-width:1.875;"/>
      </defs>
      <g>
       <use style="fill:#555555;stroke:#555555;stroke-width:1.875;" x="108" xlink:href="#m587f3ce99d" y="357.983808"/>
      </g>
     </g>
     <g id="text_7">
      <!-- $\mathdefault{10^{-1}}$ -->
      <defs>
       <path d="M 10.59375 35.5 
L 73.1875 35.5 
L 73.1875 27.203125 
L 10.59375 27.203125 
z
" id="DejaVuSans-8722"/>
      </defs>
      <g style="fill:#555555;" transform="translate(56.725 364.252519)scale(0.165 -0.165)">
       <use transform="translate(0 0.684375)" xlink:href="#DejaVuSans-49"/>
       <use transform="translate(63.623047 0.684375)" xlink:href="#DejaVuSans-48"/>
       <use transform="translate(128.203125 38.965625)scale(0.7)" xlink:href="#DejaVuSans-8722"/>
       <use transform="translate(186.855469 38.965625)scale(0.7)" xlink:href="#DejaVuSans-49"/>
      </g>
     </g>
    </g>
    <g id="ytick_2">
     <g id="line2d_15">
      <path clip-path="url(#p9b5fff554e)" d="M 108 301.192551 
L 412.363636 301.192551 
" style="fill:none;stroke:#ffffff;stroke-linecap:square;stroke-width:1.5;"/>
     </g>
     <g id="line2d_16">
      <g>
       <use style="fill:#555555;stroke:#555555;stroke-width:1.875;" x="108" xlink:href="#m587f3ce99d" y="301.192551"/>
      </g>
     </g>
     <g id="text_8">
      <!-- $\mathdefault{10^{0}}$ -->
      <g style="fill:#555555;" transform="translate(66.46 307.461262)scale(0.165 -0.165)">
       <use transform="translate(0 0.765625)" xlink:href="#DejaVuSans-49"/>
       <use transform="translate(63.623047 0.765625)" xlink:href="#DejaVuSans-48"/>
       <use transform="translate(128.203125 39.046875)scale(0.7)" xlink:href="#DejaVuSans-48"/>
      </g>
     </g>
    </g>
    <g id="ytick_3">
     <g id="line2d_17">
      <path clip-path="url(#p9b5fff554e)" d="M 108 244.401294 
L 412.363636 244.401294 
" style="fill:none;stroke:#ffffff;stroke-linecap:square;stroke-width:1.5;"/>
     </g>
     <g id="line2d_18">
      <g>
       <use style="fill:#555555;stroke:#555555;stroke-width:1.875;" x="108" xlink:href="#m587f3ce99d" y="244.401294"/>
      </g>
     </g>
     <g id="text_9">
      <!-- $\mathdefault{10^{1}}$ -->
      <g style="fill:#555555;" transform="translate(66.46 250.670005)scale(0.165 -0.165)">
       <use transform="translate(0 0.684375)" xlink:href="#DejaVuSans-49"/>
       <use transform="translate(63.623047 0.684375)" xlink:href="#DejaVuSans-48"/>
       <use transform="translate(128.203125 38.965625)scale(0.7)" xlink:href="#DejaVuSans-49"/>
      </g>
     </g>
    </g>
    <g id="ytick_4">
     <g id="line2d_19">
      <path clip-path="url(#p9b5fff554e)" d="M 108 187.610037 
L 412.363636 187.610037 
" style="fill:none;stroke:#ffffff;stroke-linecap:square;stroke-width:1.5;"/>
     </g>
     <g id="line2d_20">
      <g>
       <use style="fill:#555555;stroke:#555555;stroke-width:1.875;" x="108" xlink:href="#m587f3ce99d" y="187.610037"/>
      </g>
     </g>
     <g id="text_10">
      <!-- $\mathdefault{10^{2}}$ -->
      <g style="fill:#555555;" transform="translate(66.46 193.878748)scale(0.165 -0.165)">
       <use transform="translate(0 0.765625)" xlink:href="#DejaVuSans-49"/>
       <use transform="translate(63.623047 0.765625)" xlink:href="#DejaVuSans-48"/>
       <use transform="translate(128.203125 39.046875)scale(0.7)" xlink:href="#DejaVuSans-50"/>
      </g>
     </g>
    </g>
    <g id="ytick_5">
     <g id="line2d_21">
      <path clip-path="url(#p9b5fff554e)" d="M 108 130.81878 
L 412.363636 130.81878 
" style="fill:none;stroke:#ffffff;stroke-linecap:square;stroke-width:1.5;"/>
     </g>
     <g id="line2d_22">
      <g>
       <use style="fill:#555555;stroke:#555555;stroke-width:1.875;" x="108" xlink:href="#m587f3ce99d" y="130.81878"/>
      </g>
     </g>
     <g id="text_11">
      <!-- $\mathdefault{10^{3}}$ -->
      <defs>
       <path d="M 40.578125 39.3125 
Q 47.65625 37.796875 51.625 33 
Q 55.609375 28.21875 55.609375 21.1875 
Q 55.609375 10.40625 48.1875 4.484375 
Q 40.765625 -1.421875 27.09375 -1.421875 
Q 22.515625 -1.421875 17.65625 -0.515625 
Q 12.796875 0.390625 7.625 2.203125 
L 7.625 11.71875 
Q 11.71875 9.328125 16.59375 8.109375 
Q 21.484375 6.890625 26.8125 6.890625 
Q 36.078125 6.890625 40.9375 10.546875 
Q 45.796875 14.203125 45.796875 21.1875 
Q 45.796875 27.640625 41.28125 31.265625 
Q 36.765625 34.90625 28.71875 34.90625 
L 20.21875 34.90625 
L 20.21875 43.015625 
L 29.109375 43.015625 
Q 36.375 43.015625 40.234375 45.921875 
Q 44.09375 48.828125 44.09375 54.296875 
Q 44.09375 59.90625 40.109375 62.90625 
Q 36.140625 65.921875 28.71875 65.921875 
Q 24.65625 65.921875 20.015625 65.03125 
Q 15.375 64.15625 9.8125 62.3125 
L 9.8125 71.09375 
Q 15.4375 72.65625 20.34375 73.4375 
Q 25.25 74.21875 29.59375 74.21875 
Q 40.828125 74.21875 47.359375 69.109375 
Q 53.90625 64.015625 53.90625 55.328125 
Q 53.90625 49.265625 50.4375 45.09375 
Q 46.96875 40.921875 40.578125 39.3125 
z
" id="DejaVuSans-51"/>
      </defs>
      <g style="fill:#555555;" transform="translate(66.46 137.087491)scale(0.165 -0.165)">
       <use transform="translate(0 0.765625)" xlink:href="#DejaVuSans-49"/>
       <use transform="translate(63.623047 0.765625)" xlink:href="#DejaVuSans-48"/>
       <use transform="translate(128.203125 39.046875)scale(0.7)" xlink:href="#DejaVuSans-51"/>
      </g>
     </g>
    </g>
    <g id="ytick_6">
     <g id="line2d_23">
      <defs>
       <path d="M 0 0 
L -6 0 
" id="mb3a4c4c439" style="stroke:#555555;stroke-width:1.5;"/>
      </defs>
      <g>
       <use style="fill:#555555;stroke:#555555;stroke-width:1.5;" x="108" xlink:href="#mb3a4c4c439" y="397.679194"/>
      </g>
     </g>
    </g>
    <g id="ytick_7">
     <g id="line2d_24">
      <g>
       <use style="fill:#555555;stroke:#555555;stroke-width:1.5;" x="108" xlink:href="#mb3a4c4c439" y="387.67875"/>
      </g>
     </g>
    </g>
    <g id="ytick_8">
     <g id="line2d_25">
      <g>
       <use style="fill:#555555;stroke:#555555;stroke-width:1.5;" x="108" xlink:href="#mb3a4c4c439" y="380.583322"/>
      </g>
     </g>
    </g>
    <g id="ytick_9">
     <g id="line2d_26">
      <g>
       <use style="fill:#555555;stroke:#555555;stroke-width:1.5;" x="108" xlink:href="#mb3a4c4c439" y="375.07968"/>
      </g>
     </g>
    </g>
    <g id="ytick_10">
     <g id="line2d_27">
      <g>
       <use style="fill:#555555;stroke:#555555;stroke-width:1.5;" x="108" xlink:href="#mb3a4c4c439" y="370.582878"/>
      </g>
     </g>
    </g>
    <g id="ytick_11">
     <g id="line2d_28">
      <g>
       <use style="fill:#555555;stroke:#555555;stroke-width:1.5;" x="108" xlink:href="#mb3a4c4c439" y="366.780885"/>
      </g>
     </g>
    </g>
    <g id="ytick_12">
     <g id="line2d_29">
      <g>
       <use style="fill:#555555;stroke:#555555;stroke-width:1.5;" x="108" xlink:href="#mb3a4c4c439" y="363.48745"/>
      </g>
     </g>
    </g>
    <g id="ytick_13">
     <g id="line2d_30">
      <g>
       <use style="fill:#555555;stroke:#555555;stroke-width:1.5;" x="108" xlink:href="#mb3a4c4c439" y="360.582434"/>
      </g>
     </g>
    </g>
    <g id="ytick_14">
     <g id="line2d_31">
      <g>
       <use style="fill:#555555;stroke:#555555;stroke-width:1.5;" x="108" xlink:href="#mb3a4c4c439" y="340.887937"/>
      </g>
     </g>
    </g>
    <g id="ytick_15">
     <g id="line2d_32">
      <g>
       <use style="fill:#555555;stroke:#555555;stroke-width:1.5;" x="108" xlink:href="#mb3a4c4c439" y="330.887493"/>
      </g>
     </g>
    </g>
    <g id="ytick_16">
     <g id="line2d_33">
      <g>
       <use style="fill:#555555;stroke:#555555;stroke-width:1.5;" x="108" xlink:href="#mb3a4c4c439" y="323.792065"/>
      </g>
     </g>
    </g>
    <g id="ytick_17">
     <g id="line2d_34">
      <g>
       <use style="fill:#555555;stroke:#555555;stroke-width:1.5;" x="108" xlink:href="#mb3a4c4c439" y="318.288423"/>
      </g>
     </g>
    </g>
    <g id="ytick_18">
     <g id="line2d_35">
      <g>
       <use style="fill:#555555;stroke:#555555;stroke-width:1.5;" x="108" xlink:href="#mb3a4c4c439" y="313.791621"/>
      </g>
     </g>
    </g>
    <g id="ytick_19">
     <g id="line2d_36">
      <g>
       <use style="fill:#555555;stroke:#555555;stroke-width:1.5;" x="108" xlink:href="#mb3a4c4c439" y="309.989628"/>
      </g>
     </g>
    </g>
    <g id="ytick_20">
     <g id="line2d_37">
      <g>
       <use style="fill:#555555;stroke:#555555;stroke-width:1.5;" x="108" xlink:href="#mb3a4c4c439" y="306.696193"/>
      </g>
     </g>
    </g>
    <g id="ytick_21">
     <g id="line2d_38">
      <g>
       <use style="fill:#555555;stroke:#555555;stroke-width:1.5;" x="108" xlink:href="#mb3a4c4c439" y="303.791177"/>
      </g>
     </g>
    </g>
    <g id="ytick_22">
     <g id="line2d_39">
      <g>
       <use style="fill:#555555;stroke:#555555;stroke-width:1.5;" x="108" xlink:href="#mb3a4c4c439" y="284.09668"/>
      </g>
     </g>
    </g>
    <g id="ytick_23">
     <g id="line2d_40">
      <g>
       <use style="fill:#555555;stroke:#555555;stroke-width:1.5;" x="108" xlink:href="#mb3a4c4c439" y="274.096236"/>
      </g>
     </g>
    </g>
    <g id="ytick_24">
     <g id="line2d_41">
      <g>
       <use style="fill:#555555;stroke:#555555;stroke-width:1.5;" x="108" xlink:href="#mb3a4c4c439" y="267.000808"/>
      </g>
     </g>
    </g>
    <g id="ytick_25">
     <g id="line2d_42">
      <g>
       <use style="fill:#555555;stroke:#555555;stroke-width:1.5;" x="108" xlink:href="#mb3a4c4c439" y="261.497166"/>
      </g>
     </g>
    </g>
    <g id="ytick_26">
     <g id="line2d_43">
      <g>
       <use style="fill:#555555;stroke:#555555;stroke-width:1.5;" x="108" xlink:href="#mb3a4c4c439" y="257.000364"/>
      </g>
     </g>
    </g>
    <g id="ytick_27">
     <g id="line2d_44">
      <g>
       <use style="fill:#555555;stroke:#555555;stroke-width:1.5;" x="108" xlink:href="#mb3a4c4c439" y="253.198371"/>
      </g>
     </g>
    </g>
    <g id="ytick_28">
     <g id="line2d_45">
      <g>
       <use style="fill:#555555;stroke:#555555;stroke-width:1.5;" x="108" xlink:href="#mb3a4c4c439" y="249.904936"/>
      </g>
     </g>
    </g>
    <g id="ytick_29">
     <g id="line2d_46">
      <g>
       <use style="fill:#555555;stroke:#555555;stroke-width:1.5;" x="108" xlink:href="#mb3a4c4c439" y="246.99992"/>
      </g>
     </g>
    </g>
    <g id="ytick_30">
     <g id="line2d_47">
      <g>
       <use style="fill:#555555;stroke:#555555;stroke-width:1.5;" x="108" xlink:href="#mb3a4c4c439" y="227.305422"/>
      </g>
     </g>
    </g>
    <g id="ytick_31">
     <g id="line2d_48">
      <g>
       <use style="fill:#555555;stroke:#555555;stroke-width:1.5;" x="108" xlink:href="#mb3a4c4c439" y="217.304978"/>
      </g>
     </g>
    </g>
    <g id="ytick_32">
     <g id="line2d_49">
      <g>
       <use style="fill:#555555;stroke:#555555;stroke-width:1.5;" x="108" xlink:href="#mb3a4c4c439" y="210.209551"/>
      </g>
     </g>
    </g>
    <g id="ytick_33">
     <g id="line2d_50">
      <g>
       <use style="fill:#555555;stroke:#555555;stroke-width:1.5;" x="108" xlink:href="#mb3a4c4c439" y="204.705909"/>
      </g>
     </g>
    </g>
    <g id="ytick_34">
     <g id="line2d_51">
      <g>
       <use style="fill:#555555;stroke:#555555;stroke-width:1.5;" x="108" xlink:href="#mb3a4c4c439" y="200.209107"/>
      </g>
     </g>
    </g>
    <g id="ytick_35">
     <g id="line2d_52">
      <g>
       <use style="fill:#555555;stroke:#555555;stroke-width:1.5;" x="108" xlink:href="#mb3a4c4c439" y="196.407114"/>
      </g>
     </g>
    </g>
    <g id="ytick_36">
     <g id="line2d_53">
      <g>
       <use style="fill:#555555;stroke:#555555;stroke-width:1.5;" x="108" xlink:href="#mb3a4c4c439" y="193.113679"/>
      </g>
     </g>
    </g>
    <g id="ytick_37">
     <g id="line2d_54">
      <g>
       <use style="fill:#555555;stroke:#555555;stroke-width:1.5;" x="108" xlink:href="#mb3a4c4c439" y="190.208663"/>
      </g>
     </g>
    </g>
    <g id="ytick_38">
     <g id="line2d_55">
      <g>
       <use style="fill:#555555;stroke:#555555;stroke-width:1.5;" x="108" xlink:href="#mb3a4c4c439" y="170.514165"/>
      </g>
     </g>
    </g>
    <g id="ytick_39">
     <g id="line2d_56">
      <g>
       <use style="fill:#555555;stroke:#555555;stroke-width:1.5;" x="108" xlink:href="#mb3a4c4c439" y="160.513721"/>
      </g>
     </g>
    </g>
    <g id="ytick_40">
     <g id="line2d_57">
      <g>
       <use style="fill:#555555;stroke:#555555;stroke-width:1.5;" x="108" xlink:href="#mb3a4c4c439" y="153.418293"/>
      </g>
     </g>
    </g>
    <g id="ytick_41">
     <g id="line2d_58">
      <g>
       <use style="fill:#555555;stroke:#555555;stroke-width:1.5;" x="108" xlink:href="#mb3a4c4c439" y="147.914652"/>
      </g>
     </g>
    </g>
    <g id="ytick_42">
     <g id="line2d_59">
      <g>
       <use style="fill:#555555;stroke:#555555;stroke-width:1.5;" x="108" xlink:href="#mb3a4c4c439" y="143.41785"/>
      </g>
     </g>
    </g>
    <g id="ytick_43">
     <g id="line2d_60">
      <g>
       <use style="fill:#555555;stroke:#555555;stroke-width:1.5;" x="108" xlink:href="#mb3a4c4c439" y="139.615857"/>
      </g>
     </g>
    </g>
    <g id="ytick_44">
     <g id="line2d_61">
      <g>
       <use style="fill:#555555;stroke:#555555;stroke-width:1.5;" x="108" xlink:href="#mb3a4c4c439" y="136.322422"/>
      </g>
     </g>
    </g>
    <g id="ytick_45">
     <g id="line2d_62">
      <g>
       <use style="fill:#555555;stroke:#555555;stroke-width:1.5;" x="108" xlink:href="#mb3a4c4c439" y="133.417406"/>
      </g>
     </g>
    </g>
    <g id="ytick_46">
     <g id="line2d_63">
      <g>
       <use style="fill:#555555;stroke:#555555;stroke-width:1.5;" x="108" xlink:href="#mb3a4c4c439" y="113.722908"/>
      </g>
     </g>
    </g>
    <g id="ytick_47">
     <g id="line2d_64">
      <g>
       <use style="fill:#555555;stroke:#555555;stroke-width:1.5;" x="108" xlink:href="#mb3a4c4c439" y="103.722464"/>
      </g>
     </g>
    </g>
    <g id="text_12">
     <!-- $μm^2$ -->
     <defs>
      <path d="M -1.3125 -20.796875 
L 13.375 54.6875 
L 22.40625 54.6875 
L 15.765625 20.65625 
Q 15.578125 19.625 15.421875 18.359375 
Q 15.28125 17.09375 15.28125 15.828125 
Q 15.28125 11.28125 18.140625 8.828125 
Q 21 6.390625 26.3125 6.390625 
Q 33.546875 6.390625 37.984375 10.484375 
Q 42.4375 14.59375 44 22.796875 
L 50.203125 54.6875 
L 59.1875 54.6875 
L 51.03125 12.640625 
Q 50.828125 11.71875 50.75 11.03125 
Q 50.6875 10.359375 50.6875 9.8125 
Q 50.6875 8.296875 51.296875 7.59375 
Q 51.90625 6.890625 53.21875 6.890625 
Q 53.71875 6.890625 54.5625 7.125 
Q 55.421875 7.375 56.984375 8.015625 
L 55.609375 0.78125 
Q 53.46875 -0.296875 51.515625 -0.859375 
Q 49.5625 -1.421875 47.703125 -1.421875 
Q 44.484375 -1.421875 42.65625 0.625 
Q 40.828125 2.6875 40.828125 6.296875 
Q 38.09375 2.390625 34.296875 0.484375 
Q 30.515625 -1.421875 25.390625 -1.421875 
Q 20.84375 -1.421875 17.453125 0.671875 
Q 14.0625 2.78125 12.984375 6.203125 
L 7.71875 -20.796875 
z
" id="DejaVuSans-Oblique-956"/>
      <path d="M 89.796875 33.015625 
L 83.40625 0 
L 74.421875 0 
L 80.71875 32.71875 
Q 81.109375 34.8125 81.296875 36.328125 
Q 81.5 37.84375 81.5 38.921875 
Q 81.5 43.3125 79.046875 45.75 
Q 76.609375 48.1875 72.21875 48.1875 
Q 65.671875 48.1875 60.546875 43.28125 
Q 55.421875 38.375 53.90625 30.515625 
L 47.90625 0 
L 38.921875 0 
L 45.3125 32.71875 
Q 45.703125 34.515625 45.890625 36.046875 
Q 46.09375 37.59375 46.09375 38.8125 
Q 46.09375 43.265625 43.65625 45.71875 
Q 41.21875 48.1875 36.921875 48.1875 
Q 30.28125 48.1875 25.140625 43.28125 
Q 20.015625 38.375 18.5 30.515625 
L 12.5 0 
L 3.515625 0 
L 14.203125 54.6875 
L 23.1875 54.6875 
L 21.484375 46.1875 
Q 25.140625 50.984375 30.046875 53.484375 
Q 34.96875 56 40.578125 56 
Q 46.53125 56 50.359375 52.875 
Q 54.203125 49.75 54.984375 44.1875 
Q 59.078125 49.953125 64.46875 52.96875 
Q 69.875 56 75.875 56 
Q 82.90625 56 86.734375 51.953125 
Q 90.578125 47.90625 90.578125 40.484375 
Q 90.578125 38.875 90.375 36.9375 
Q 90.1875 35.015625 89.796875 33.015625 
z
" id="DejaVuSans-Oblique-109"/>
     </defs>
     <g style="fill:#555555;" transform="translate(50.205 264.714545)rotate(-90)scale(0.12 -0.12)">
      <use transform="translate(0 0.765625)" xlink:href="#DejaVuSans-Oblique-956"/>
      <use transform="translate(63.623047 0.765625)" xlink:href="#DejaVuSans-Oblique-109"/>
      <use transform="translate(165.685052 39.046875)scale(0.7)" xlink:href="#DejaVuSans-50"/>
     </g>
    </g>
   </g>
   <g id="line2d_65">
    <path clip-path="url(#p9b5fff554e)" d="M 121.834711 124.730191 
L 145.895077 151.34943 
L 151.910169 128.023627 
L 163.940352 117.157686 
L 181.985627 132.039788 
L 212.061085 168.163423 
L 212.061085 185.036088 
L 254.166727 207.858808 
L 260.181818 229.767404 
L 272.212001 243.768222 
L 284.242185 259.146424 
L 296.272368 283.011041 
L 302.28746 301.192551 
L 320.332734 315.056725 
L 326.347826 327.368999 
L 344.393101 348.314432 
L 356.423284 360.040343 
L 374.468559 375.129058 
L 398.528926 386.711405 
" style="fill:none;stroke:#e24a33;stroke-linecap:square;stroke-width:2.25;"/>
   </g>
   <g id="patch_3">
    <path d="M 108 400.189091 
L 108 103.68 
" style="fill:none;stroke:#ffffff;stroke-linecap:square;stroke-linejoin:miter;"/>
   </g>
   <g id="patch_4">
    <path d="M 412.363636 400.189091 
L 412.363636 103.68 
" style="fill:none;stroke:#ffffff;stroke-linecap:square;stroke-linejoin:miter;"/>
   </g>
   <g id="patch_5">
    <path d="M 108 400.189091 
L 412.363636 400.189091 
" style="fill:none;stroke:#ffffff;stroke-linecap:square;stroke-linejoin:miter;"/>
   </g>
   <g id="patch_6">
    <path d="M 108 103.68 
L 412.363636 103.68 
" style="fill:none;stroke:#ffffff;stroke-linecap:square;stroke-linejoin:miter;"/>
   </g>
   <g id="text_13">
    <!-- SRAM bit size -->
    <defs>
     <path d="M 53.515625 70.515625 
L 53.515625 60.890625 
Q 47.90625 63.578125 42.921875 64.890625 
Q 37.9375 66.21875 33.296875 66.21875 
Q 25.25 66.21875 20.875 63.09375 
Q 16.5 59.96875 16.5 54.203125 
Q 16.5 49.359375 19.40625 46.890625 
Q 22.3125 44.4375 30.421875 42.921875 
L 36.375 41.703125 
Q 47.40625 39.59375 52.65625 34.296875 
Q 57.90625 29 57.90625 20.125 
Q 57.90625 9.515625 50.796875 4.046875 
Q 43.703125 -1.421875 29.984375 -1.421875 
Q 24.8125 -1.421875 18.96875 -0.25 
Q 13.140625 0.921875 6.890625 3.21875 
L 6.890625 13.375 
Q 12.890625 10.015625 18.65625 8.296875 
Q 24.421875 6.59375 29.984375 6.59375 
Q 38.421875 6.59375 43.015625 9.90625 
Q 47.609375 13.234375 47.609375 19.390625 
Q 47.609375 24.75 44.3125 27.78125 
Q 41.015625 30.8125 33.5 32.328125 
L 27.484375 33.5 
Q 16.453125 35.6875 11.515625 40.375 
Q 6.59375 45.0625 6.59375 53.421875 
Q 6.59375 63.09375 13.40625 68.65625 
Q 20.21875 74.21875 32.171875 74.21875 
Q 37.3125 74.21875 42.625 73.28125 
Q 47.953125 72.359375 53.515625 70.515625 
z
" id="DejaVuSans-83"/>
     <path d="M 44.390625 34.1875 
Q 47.5625 33.109375 50.5625 29.59375 
Q 53.5625 26.078125 56.59375 19.921875 
L 66.609375 0 
L 56 0 
L 46.6875 18.703125 
Q 43.0625 26.03125 39.671875 28.421875 
Q 36.28125 30.8125 30.421875 30.8125 
L 19.671875 30.8125 
L 19.671875 0 
L 9.8125 0 
L 9.8125 72.90625 
L 32.078125 72.90625 
Q 44.578125 72.90625 50.734375 67.671875 
Q 56.890625 62.453125 56.890625 51.90625 
Q 56.890625 45.015625 53.6875 40.46875 
Q 50.484375 35.9375 44.390625 34.1875 
z
M 19.671875 64.796875 
L 19.671875 38.921875 
L 32.078125 38.921875 
Q 39.203125 38.921875 42.84375 42.21875 
Q 46.484375 45.515625 46.484375 51.90625 
Q 46.484375 58.296875 42.84375 61.546875 
Q 39.203125 64.796875 32.078125 64.796875 
z
" id="DejaVuSans-82"/>
     <path d="M 34.1875 63.1875 
L 20.796875 26.90625 
L 47.609375 26.90625 
z
M 28.609375 72.90625 
L 39.796875 72.90625 
L 67.578125 0 
L 57.328125 0 
L 50.6875 18.703125 
L 17.828125 18.703125 
L 11.1875 0 
L 0.78125 0 
z
" id="DejaVuSans-65"/>
     <path d="M 9.8125 72.90625 
L 24.515625 72.90625 
L 43.109375 23.296875 
L 61.8125 72.90625 
L 76.515625 72.90625 
L 76.515625 0 
L 66.890625 0 
L 66.890625 64.015625 
L 48.09375 14.015625 
L 38.1875 14.015625 
L 19.390625 64.015625 
L 19.390625 0 
L 9.8125 0 
z
" id="DejaVuSans-77"/>
     <path id="DejaVuSans-32"/>
     <path d="M 48.6875 27.296875 
Q 48.6875 37.203125 44.609375 42.84375 
Q 40.53125 48.484375 33.40625 48.484375 
Q 26.265625 48.484375 22.1875 42.84375 
Q 18.109375 37.203125 18.109375 27.296875 
Q 18.109375 17.390625 22.1875 11.75 
Q 26.265625 6.109375 33.40625 6.109375 
Q 40.53125 6.109375 44.609375 11.75 
Q 48.6875 17.390625 48.6875 27.296875 
z
M 18.109375 46.390625 
Q 20.953125 51.265625 25.265625 53.625 
Q 29.59375 56 35.59375 56 
Q 45.5625 56 51.78125 48.09375 
Q 58.015625 40.1875 58.015625 27.296875 
Q 58.015625 14.40625 51.78125 6.484375 
Q 45.5625 -1.421875 35.59375 -1.421875 
Q 29.59375 -1.421875 25.265625 0.953125 
Q 20.953125 3.328125 18.109375 8.203125 
L 18.109375 0 
L 9.078125 0 
L 9.078125 75.984375 
L 18.109375 75.984375 
z
" id="DejaVuSans-98"/>
     <path d="M 9.421875 54.6875 
L 18.40625 54.6875 
L 18.40625 0 
L 9.421875 0 
z
M 9.421875 75.984375 
L 18.40625 75.984375 
L 18.40625 64.59375 
L 9.421875 64.59375 
z
" id="DejaVuSans-105"/>
     <path d="M 18.3125 70.21875 
L 18.3125 54.6875 
L 36.8125 54.6875 
L 36.8125 47.703125 
L 18.3125 47.703125 
L 18.3125 18.015625 
Q 18.3125 11.328125 20.140625 9.421875 
Q 21.96875 7.515625 27.59375 7.515625 
L 36.8125 7.515625 
L 36.8125 0 
L 27.59375 0 
Q 17.1875 0 13.234375 3.875 
Q 9.28125 7.765625 9.28125 18.015625 
L 9.28125 47.703125 
L 2.6875 47.703125 
L 2.6875 54.6875 
L 9.28125 54.6875 
L 9.28125 70.21875 
z
" id="DejaVuSans-116"/>
     <path d="M 44.28125 53.078125 
L 44.28125 44.578125 
Q 40.484375 46.53125 36.375 47.5 
Q 32.28125 48.484375 27.875 48.484375 
Q 21.1875 48.484375 17.84375 46.4375 
Q 14.5 44.390625 14.5 40.28125 
Q 14.5 37.15625 16.890625 35.375 
Q 19.28125 33.59375 26.515625 31.984375 
L 29.59375 31.296875 
Q 39.15625 29.25 43.1875 25.515625 
Q 47.21875 21.78125 47.21875 15.09375 
Q 47.21875 7.46875 41.1875 3.015625 
Q 35.15625 -1.421875 24.609375 -1.421875 
Q 20.21875 -1.421875 15.453125 -0.5625 
Q 10.6875 0.296875 5.421875 2 
L 5.421875 11.28125 
Q 10.40625 8.6875 15.234375 7.390625 
Q 20.0625 6.109375 24.8125 6.109375 
Q 31.15625 6.109375 34.5625 8.28125 
Q 37.984375 10.453125 37.984375 14.40625 
Q 37.984375 18.0625 35.515625 20.015625 
Q 33.0625 21.96875 24.703125 23.78125 
L 21.578125 24.515625 
Q 13.234375 26.265625 9.515625 29.90625 
Q 5.8125 33.546875 5.8125 39.890625 
Q 5.8125 47.609375 11.28125 51.796875 
Q 16.75 56 26.8125 56 
Q 31.78125 56 36.171875 55.265625 
Q 40.578125 54.546875 44.28125 53.078125 
z
" id="DejaVuSans-115"/>
     <path d="M 5.515625 54.6875 
L 48.1875 54.6875 
L 48.1875 46.484375 
L 14.40625 7.171875 
L 48.1875 7.171875 
L 48.1875 0 
L 4.296875 0 
L 4.296875 8.203125 
L 38.09375 47.515625 
L 5.515625 47.515625 
z
" id="DejaVuSans-122"/>
     <path d="M 56.203125 29.59375 
L 56.203125 25.203125 
L 14.890625 25.203125 
Q 15.484375 15.921875 20.484375 11.0625 
Q 25.484375 6.203125 34.421875 6.203125 
Q 39.59375 6.203125 44.453125 7.46875 
Q 49.3125 8.734375 54.109375 11.28125 
L 54.109375 2.78125 
Q 49.265625 0.734375 44.1875 -0.34375 
Q 39.109375 -1.421875 33.890625 -1.421875 
Q 20.796875 -1.421875 13.15625 6.1875 
Q 5.515625 13.8125 5.515625 26.8125 
Q 5.515625 40.234375 12.765625 48.109375 
Q 20.015625 56 32.328125 56 
Q 43.359375 56 49.78125 48.890625 
Q 56.203125 41.796875 56.203125 29.59375 
z
M 47.21875 32.234375 
Q 47.125 39.59375 43.09375 43.984375 
Q 39.0625 48.390625 32.421875 48.390625 
Q 24.90625 48.390625 20.390625 44.140625 
Q 15.875 39.890625 15.1875 32.171875 
z
" id="DejaVuSans-101"/>
    </defs>
    <g transform="translate(211.828193 97.68)scale(0.144 -0.144)">
     <use xlink:href="#DejaVuSans-83"/>
     <use x="63.476562" xlink:href="#DejaVuSans-82"/>
     <use x="128.958984" xlink:href="#DejaVuSans-65"/>
     <use x="197.367188" xlink:href="#DejaVuSans-77"/>
     <use x="283.646484" xlink:href="#DejaVuSans-32"/>
     <use x="315.433594" xlink:href="#DejaVuSans-98"/>
     <use x="378.910156" xlink:href="#DejaVuSans-105"/>
     <use x="406.693359" xlink:href="#DejaVuSans-116"/>
     <use x="445.902344" xlink:href="#DejaVuSans-32"/>
     <use x="477.689453" xlink:href="#DejaVuSans-115"/>
     <use x="529.789062" xlink:href="#DejaVuSans-105"/>
     <use x="557.572266" xlink:href="#DejaVuSans-122"/>
     <use x="610.0625" xlink:href="#DejaVuSans-101"/>
    </g>
   </g>
  </g>
  <g id="axes_2">
   <g id="patch_7">
    <path d="M 473.236364 400.189091 
L 777.6 400.189091 
L 777.6 103.68 
L 473.236364 103.68 
z
" style="fill:#e5e5e5;"/>
   </g>
   <g id="matplotlib.axis_3">
    <g id="xtick_7">
     <g id="line2d_66">
      <path clip-path="url(#p3995674499)" d="M 475.040891 400.189091 
L 475.040891 103.68 
" style="fill:none;stroke:#ffffff;stroke-linecap:square;stroke-width:1.5;"/>
     </g>
     <g id="line2d_67">
      <g>
       <use style="fill:#555555;stroke:#555555;stroke-width:1.875;" x="475.040891" xlink:href="#md07a66e8d9" y="400.189091"/>
      </g>
     </g>
     <g id="text_14">
      <!-- 1970 -->
      <g style="fill:#555555;" transform="translate(454.044641 425.226513)scale(0.165 -0.165)">
       <use xlink:href="#DejaVuSans-49"/>
       <use x="63.623047" xlink:href="#DejaVuSans-57"/>
       <use x="127.246094" xlink:href="#DejaVuSans-55"/>
       <use x="190.869141" xlink:href="#DejaVuSans-48"/>
      </g>
     </g>
    </g>
    <g id="xtick_8">
     <g id="line2d_68">
      <path clip-path="url(#p3995674499)" d="M 535.191807 400.189091 
L 535.191807 103.68 
" style="fill:none;stroke:#ffffff;stroke-linecap:square;stroke-width:1.5;"/>
     </g>
     <g id="line2d_69">
      <g>
       <use style="fill:#555555;stroke:#555555;stroke-width:1.875;" x="535.191807" xlink:href="#md07a66e8d9" y="400.189091"/>
      </g>
     </g>
     <g id="text_15">
      <!-- 1980 -->
      <g style="fill:#555555;" transform="translate(514.195557 425.226513)scale(0.165 -0.165)">
       <use xlink:href="#DejaVuSans-49"/>
       <use x="63.623047" xlink:href="#DejaVuSans-57"/>
       <use x="127.246094" xlink:href="#DejaVuSans-56"/>
       <use x="190.869141" xlink:href="#DejaVuSans-48"/>
      </g>
     </g>
    </g>
    <g id="xtick_9">
     <g id="line2d_70">
      <path clip-path="url(#p3995674499)" d="M 595.342724 400.189091 
L 595.342724 103.68 
" style="fill:none;stroke:#ffffff;stroke-linecap:square;stroke-width:1.5;"/>
     </g>
     <g id="line2d_71">
      <g>
       <use style="fill:#555555;stroke:#555555;stroke-width:1.875;" x="595.342724" xlink:href="#md07a66e8d9" y="400.189091"/>
      </g>
     </g>
     <g id="text_16">
      <!-- 1990 -->
      <g style="fill:#555555;" transform="translate(574.346474 425.226513)scale(0.165 -0.165)">
       <use xlink:href="#DejaVuSans-49"/>
       <use x="63.623047" xlink:href="#DejaVuSans-57"/>
       <use x="127.246094" xlink:href="#DejaVuSans-57"/>
       <use x="190.869141" xlink:href="#DejaVuSans-48"/>
      </g>
     </g>
    </g>
    <g id="xtick_10">
     <g id="line2d_72">
      <path clip-path="url(#p3995674499)" d="M 655.49364 400.189091 
L 655.49364 103.68 
" style="fill:none;stroke:#ffffff;stroke-linecap:square;stroke-width:1.5;"/>
     </g>
     <g id="line2d_73">
      <g>
       <use style="fill:#555555;stroke:#555555;stroke-width:1.875;" x="655.49364" xlink:href="#md07a66e8d9" y="400.189091"/>
      </g>
     </g>
     <g id="text_17">
      <!-- 2000 -->
      <g style="fill:#555555;" transform="translate(634.49739 425.226513)scale(0.165 -0.165)">
       <use xlink:href="#DejaVuSans-50"/>
       <use x="63.623047" xlink:href="#DejaVuSans-48"/>
       <use x="127.246094" xlink:href="#DejaVuSans-48"/>
       <use x="190.869141" xlink:href="#DejaVuSans-48"/>
      </g>
     </g>
    </g>
    <g id="xtick_11">
     <g id="line2d_74">
      <path clip-path="url(#p3995674499)" d="M 715.644556 400.189091 
L 715.644556 103.68 
" style="fill:none;stroke:#ffffff;stroke-linecap:square;stroke-width:1.5;"/>
     </g>
     <g id="line2d_75">
      <g>
       <use style="fill:#555555;stroke:#555555;stroke-width:1.875;" x="715.644556" xlink:href="#md07a66e8d9" y="400.189091"/>
      </g>
     </g>
     <g id="text_18">
      <!-- 2010 -->
      <g style="fill:#555555;" transform="translate(694.648306 425.226513)scale(0.165 -0.165)">
       <use xlink:href="#DejaVuSans-50"/>
       <use x="63.623047" xlink:href="#DejaVuSans-48"/>
       <use x="127.246094" xlink:href="#DejaVuSans-49"/>
       <use x="190.869141" xlink:href="#DejaVuSans-48"/>
      </g>
     </g>
    </g>
    <g id="xtick_12">
     <g id="line2d_76">
      <path clip-path="url(#p3995674499)" d="M 775.795473 400.189091 
L 775.795473 103.68 
" style="fill:none;stroke:#ffffff;stroke-linecap:square;stroke-width:1.5;"/>
     </g>
     <g id="line2d_77">
      <g>
       <use style="fill:#555555;stroke:#555555;stroke-width:1.875;" x="775.795473" xlink:href="#md07a66e8d9" y="400.189091"/>
      </g>
     </g>
     <g id="text_19">
      <!-- 2020 -->
      <g style="fill:#555555;" transform="translate(754.799223 425.226513)scale(0.165 -0.165)">
       <use xlink:href="#DejaVuSans-50"/>
       <use x="63.623047" xlink:href="#DejaVuSans-48"/>
       <use x="127.246094" xlink:href="#DejaVuSans-50"/>
       <use x="190.869141" xlink:href="#DejaVuSans-48"/>
      </g>
     </g>
    </g>
   </g>
   <g id="matplotlib.axis_4">
    <g id="ytick_48">
     <g id="line2d_78">
      <path clip-path="url(#p3995674499)" d="M 473.236364 364.248595 
L 777.6 364.248595 
" style="fill:none;stroke:#ffffff;stroke-linecap:square;stroke-width:1.5;"/>
     </g>
     <g id="line2d_79">
      <g>
       <use style="fill:#555555;stroke:#555555;stroke-width:1.875;" x="473.236364" xlink:href="#m587f3ce99d" y="364.248595"/>
      </g>
     </g>
     <g id="text_20">
      <!-- 2 -->
      <g style="fill:#555555;" transform="translate(450.238239 370.517306)scale(0.165 -0.165)">
       <use xlink:href="#DejaVuSans-50"/>
      </g>
     </g>
    </g>
    <g id="ytick_49">
     <g id="line2d_80">
      <path clip-path="url(#p3995674499)" d="M 473.236364 319.322975 
L 777.6 319.322975 
" style="fill:none;stroke:#ffffff;stroke-linecap:square;stroke-width:1.5;"/>
     </g>
     <g id="line2d_81">
      <g>
       <use style="fill:#555555;stroke:#555555;stroke-width:1.875;" x="473.236364" xlink:href="#m587f3ce99d" y="319.322975"/>
      </g>
     </g>
     <g id="text_21">
      <!-- 4 -->
      <defs>
       <path d="M 37.796875 64.3125 
L 12.890625 25.390625 
L 37.796875 25.390625 
z
M 35.203125 72.90625 
L 47.609375 72.90625 
L 47.609375 25.390625 
L 58.015625 25.390625 
L 58.015625 17.1875 
L 47.609375 17.1875 
L 47.609375 0 
L 37.796875 0 
L 37.796875 17.1875 
L 4.890625 17.1875 
L 4.890625 26.703125 
z
" id="DejaVuSans-52"/>
      </defs>
      <g style="fill:#555555;" transform="translate(450.238239 325.591686)scale(0.165 -0.165)">
       <use xlink:href="#DejaVuSans-52"/>
      </g>
     </g>
    </g>
    <g id="ytick_50">
     <g id="line2d_82">
      <path clip-path="url(#p3995674499)" d="M 473.236364 274.397355 
L 777.6 274.397355 
" style="fill:none;stroke:#ffffff;stroke-linecap:square;stroke-width:1.5;"/>
     </g>
     <g id="line2d_83">
      <g>
       <use style="fill:#555555;stroke:#555555;stroke-width:1.875;" x="473.236364" xlink:href="#m587f3ce99d" y="274.397355"/>
      </g>
     </g>
     <g id="text_22">
      <!-- 6 -->
      <defs>
       <path d="M 33.015625 40.375 
Q 26.375 40.375 22.484375 35.828125 
Q 18.609375 31.296875 18.609375 23.390625 
Q 18.609375 15.53125 22.484375 10.953125 
Q 26.375 6.390625 33.015625 6.390625 
Q 39.65625 6.390625 43.53125 10.953125 
Q 47.40625 15.53125 47.40625 23.390625 
Q 47.40625 31.296875 43.53125 35.828125 
Q 39.65625 40.375 33.015625 40.375 
z
M 52.59375 71.296875 
L 52.59375 62.3125 
Q 48.875 64.0625 45.09375 64.984375 
Q 41.3125 65.921875 37.59375 65.921875 
Q 27.828125 65.921875 22.671875 59.328125 
Q 17.53125 52.734375 16.796875 39.40625 
Q 19.671875 43.65625 24.015625 45.921875 
Q 28.375 48.1875 33.59375 48.1875 
Q 44.578125 48.1875 50.953125 41.515625 
Q 57.328125 34.859375 57.328125 23.390625 
Q 57.328125 12.15625 50.6875 5.359375 
Q 44.046875 -1.421875 33.015625 -1.421875 
Q 20.359375 -1.421875 13.671875 8.265625 
Q 6.984375 17.96875 6.984375 36.375 
Q 6.984375 53.65625 15.1875 63.9375 
Q 23.390625 74.21875 37.203125 74.21875 
Q 40.921875 74.21875 44.703125 73.484375 
Q 48.484375 72.75 52.59375 71.296875 
z
" id="DejaVuSans-54"/>
      </defs>
      <g style="fill:#555555;" transform="translate(450.238239 280.666066)scale(0.165 -0.165)">
       <use xlink:href="#DejaVuSans-54"/>
      </g>
     </g>
    </g>
    <g id="ytick_51">
     <g id="line2d_84">
      <path clip-path="url(#p3995674499)" d="M 473.236364 229.471736 
L 777.6 229.471736 
" style="fill:none;stroke:#ffffff;stroke-linecap:square;stroke-width:1.5;"/>
     </g>
     <g id="line2d_85">
      <g>
       <use style="fill:#555555;stroke:#555555;stroke-width:1.875;" x="473.236364" xlink:href="#m587f3ce99d" y="229.471736"/>
      </g>
     </g>
     <g id="text_23">
      <!-- 8 -->
      <g style="fill:#555555;" transform="translate(450.238239 235.740446)scale(0.165 -0.165)">
       <use xlink:href="#DejaVuSans-56"/>
      </g>
     </g>
    </g>
    <g id="ytick_52">
     <g id="line2d_86">
      <path clip-path="url(#p3995674499)" d="M 473.236364 184.546116 
L 777.6 184.546116 
" style="fill:none;stroke:#ffffff;stroke-linecap:square;stroke-width:1.5;"/>
     </g>
     <g id="line2d_87">
      <g>
       <use style="fill:#555555;stroke:#555555;stroke-width:1.875;" x="473.236364" xlink:href="#m587f3ce99d" y="184.546116"/>
      </g>
     </g>
     <g id="text_24">
      <!-- 10 -->
      <g style="fill:#555555;" transform="translate(439.740114 190.814827)scale(0.165 -0.165)">
       <use xlink:href="#DejaVuSans-49"/>
       <use x="63.623047" xlink:href="#DejaVuSans-48"/>
      </g>
     </g>
    </g>
    <g id="ytick_53">
     <g id="line2d_88">
      <path clip-path="url(#p3995674499)" d="M 473.236364 139.620496 
L 777.6 139.620496 
" style="fill:none;stroke:#ffffff;stroke-linecap:square;stroke-width:1.5;"/>
     </g>
     <g id="line2d_89">
      <g>
       <use style="fill:#555555;stroke:#555555;stroke-width:1.875;" x="473.236364" xlink:href="#m587f3ce99d" y="139.620496"/>
      </g>
     </g>
     <g id="text_25">
      <!-- 12 -->
      <g style="fill:#555555;" transform="translate(439.740114 145.889207)scale(0.165 -0.165)">
       <use xlink:href="#DejaVuSans-49"/>
       <use x="63.623047" xlink:href="#DejaVuSans-50"/>
      </g>
     </g>
    </g>
    <g id="text_26">
     <!-- $count$ -->
     <defs>
      <path d="M 53.609375 52.59375 
L 51.8125 43.703125 
Q 48.578125 46.046875 44.9375 47.21875 
Q 41.3125 48.390625 37.40625 48.390625 
Q 33.109375 48.390625 29.21875 46.875 
Q 25.34375 45.359375 22.703125 42.578125 
Q 18.5 38.328125 16.203125 32.609375 
Q 13.921875 26.90625 13.921875 20.796875 
Q 13.921875 13.421875 17.609375 9.8125 
Q 21.296875 6.203125 28.8125 6.203125 
Q 32.515625 6.203125 36.6875 7.328125 
Q 40.875 8.453125 45.40625 10.6875 
L 43.703125 1.8125 
Q 39.796875 0.203125 35.671875 -0.609375 
Q 31.546875 -1.421875 27.203125 -1.421875 
Q 16.3125 -1.421875 10.453125 4.015625 
Q 4.59375 9.46875 4.59375 19.578125 
Q 4.59375 28.078125 7.640625 35.234375 
Q 10.6875 42.390625 16.703125 48.09375 
Q 20.796875 52 26.3125 54 
Q 31.84375 56 38.375 56 
Q 42.1875 56 45.9375 55.140625 
Q 49.703125 54.296875 53.609375 52.59375 
z
" id="DejaVuSans-Oblique-99"/>
      <path d="M 25.390625 -1.421875 
Q 15.765625 -1.421875 10.171875 4.515625 
Q 4.59375 10.453125 4.59375 20.703125 
Q 4.59375 26.65625 6.515625 32.828125 
Q 8.453125 39.015625 11.53125 43.21875 
Q 16.359375 49.75 22.3125 52.875 
Q 28.265625 56 35.796875 56 
Q 45.125 56 50.859375 50.1875 
Q 56.59375 44.390625 56.59375 35.015625 
Q 56.59375 28.515625 54.6875 22.0625 
Q 52.78125 15.625 49.703125 11.375 
Q 44.921875 4.828125 38.96875 1.703125 
Q 33.015625 -1.421875 25.390625 -1.421875 
z
M 13.921875 21 
Q 13.921875 13.578125 17.015625 9.890625 
Q 20.125 6.203125 26.421875 6.203125 
Q 35.453125 6.203125 41.375 14.078125 
Q 47.3125 21.96875 47.3125 34.078125 
Q 47.3125 41.15625 44.140625 44.765625 
Q 40.96875 48.390625 34.8125 48.390625 
Q 29.734375 48.390625 25.78125 46.015625 
Q 21.828125 43.65625 18.703125 38.8125 
Q 16.40625 35.203125 15.15625 30.5625 
Q 13.921875 25.921875 13.921875 21 
z
" id="DejaVuSans-Oblique-111"/>
      <path d="M 6.6875 21.6875 
L 13.09375 54.6875 
L 22.125 54.6875 
L 15.71875 22.015625 
Q 15.234375 19.625 15.015625 17.921875 
Q 14.796875 16.21875 14.796875 15.09375 
Q 14.796875 10.9375 17.328125 8.65625 
Q 19.875 6.390625 24.515625 6.390625 
Q 31.734375 6.390625 37 11.265625 
Q 42.28125 16.15625 43.890625 24.421875 
L 49.90625 54.6875 
L 58.890625 54.6875 
L 48.296875 0 
L 39.3125 0 
L 41.109375 8.59375 
Q 37.3125 3.8125 32.0625 1.1875 
Q 26.8125 -1.421875 20.90625 -1.421875 
Q 13.71875 -1.421875 9.71875 2.515625 
Q 5.71875 6.453125 5.71875 13.484375 
Q 5.71875 14.9375 5.953125 17.140625 
Q 6.203125 19.34375 6.6875 21.6875 
z
" id="DejaVuSans-Oblique-117"/>
      <path d="M 55.71875 33.015625 
L 49.3125 0 
L 40.28125 0 
L 46.6875 32.671875 
Q 47.125 34.96875 47.359375 36.71875 
Q 47.609375 38.484375 47.609375 39.5 
Q 47.609375 43.609375 45.015625 45.890625 
Q 42.4375 48.1875 37.796875 48.1875 
Q 30.5625 48.1875 25.34375 43.375 
Q 20.125 38.578125 18.5 30.328125 
L 12.5 0 
L 3.515625 0 
L 14.109375 54.6875 
L 23.09375 54.6875 
L 21.296875 46.09375 
Q 25.046875 50.828125 30.3125 53.40625 
Q 35.59375 56 41.40625 56 
Q 48.640625 56 52.609375 52.09375 
Q 56.59375 48.1875 56.59375 41.109375 
Q 56.59375 39.359375 56.375 37.359375 
Q 56.15625 35.359375 55.71875 33.015625 
z
" id="DejaVuSans-Oblique-110"/>
      <path d="M 42.28125 54.6875 
L 40.921875 47.703125 
L 23 47.703125 
L 17.1875 18.015625 
Q 16.890625 16.359375 16.75 15.234375 
Q 16.609375 14.109375 16.609375 13.484375 
Q 16.609375 10.359375 18.484375 8.9375 
Q 20.359375 7.515625 24.515625 7.515625 
L 33.59375 7.515625 
L 32.078125 0 
L 23.484375 0 
Q 15.484375 0 11.546875 3.125 
Q 7.625 6.25 7.625 12.59375 
Q 7.625 13.71875 7.765625 15.0625 
Q 7.90625 16.40625 8.203125 18.015625 
L 14.015625 47.703125 
L 6.390625 47.703125 
L 7.8125 54.6875 
L 15.28125 54.6875 
L 18.3125 70.21875 
L 27.296875 70.21875 
L 24.3125 54.6875 
z
" id="DejaVuSans-Oblique-116"/>
     </defs>
     <g style="fill:#555555;" transform="translate(433.244489 268.914545)rotate(-90)scale(0.12 -0.12)">
      <use transform="translate(0 0.78125)" xlink:href="#DejaVuSans-Oblique-99"/>
      <use transform="translate(54.980469 0.78125)" xlink:href="#DejaVuSans-Oblique-111"/>
      <use transform="translate(116.162109 0.78125)" xlink:href="#DejaVuSans-Oblique-117"/>
      <use transform="translate(179.541016 0.78125)" xlink:href="#DejaVuSans-Oblique-110"/>
      <use transform="translate(242.919922 0.78125)" xlink:href="#DejaVuSans-Oblique-116"/>
     </g>
    </g>
   </g>
   <g id="line2d_90">
    <path clip-path="url(#p3995674499)" d="M 487.071074 386.711405 
L 511.131441 386.711405 
L 517.146533 386.711405 
L 529.176716 386.711405 
L 547.221991 386.711405 
L 577.297449 364.248595 
L 577.297449 341.785785 
L 619.40309 341.785785 
L 625.418182 319.322975 
L 637.448365 296.860165 
L 649.478548 274.397355 
L 661.508732 274.397355 
L 667.523823 251.934545 
L 685.569098 229.471736 
L 691.58419 207.008926 
L 709.629465 184.546116 
L 721.659648 162.083306 
L 739.704923 139.620496 
L 763.765289 117.157686 
" style="fill:none;stroke:#e24a33;stroke-linecap:square;stroke-width:2.25;"/>
   </g>
   <g id="patch_8">
    <path d="M 473.236364 400.189091 
L 473.236364 103.68 
" style="fill:none;stroke:#ffffff;stroke-linecap:square;stroke-linejoin:miter;"/>
   </g>
   <g id="patch_9">
    <path d="M 777.6 400.189091 
L 777.6 103.68 
" style="fill:none;stroke:#ffffff;stroke-linecap:square;stroke-linejoin:miter;"/>
   </g>
   <g id="patch_10">
    <path d="M 473.236364 400.189091 
L 777.6 400.189091 
" style="fill:none;stroke:#ffffff;stroke-linecap:square;stroke-linejoin:miter;"/>
   </g>
   <g id="patch_11">
    <path d="M 473.236364 103.68 
L 777.6 103.68 
" style="fill:none;stroke:#ffffff;stroke-linecap:square;stroke-linejoin:miter;"/>
   </g>
   <g id="text_27">
    <!-- Metal interconnect layers -->
    <defs>
     <path d="M 34.28125 27.484375 
Q 23.390625 27.484375 19.1875 25 
Q 14.984375 22.515625 14.984375 16.5 
Q 14.984375 11.71875 18.140625 8.90625 
Q 21.296875 6.109375 26.703125 6.109375 
Q 34.1875 6.109375 38.703125 11.40625 
Q 43.21875 16.703125 43.21875 25.484375 
L 43.21875 27.484375 
z
M 52.203125 31.203125 
L 52.203125 0 
L 43.21875 0 
L 43.21875 8.296875 
Q 40.140625 3.328125 35.546875 0.953125 
Q 30.953125 -1.421875 24.3125 -1.421875 
Q 15.921875 -1.421875 10.953125 3.296875 
Q 6 8.015625 6 15.921875 
Q 6 25.140625 12.171875 29.828125 
Q 18.359375 34.515625 30.609375 34.515625 
L 43.21875 34.515625 
L 43.21875 35.40625 
Q 43.21875 41.609375 39.140625 45 
Q 35.0625 48.390625 27.6875 48.390625 
Q 23 48.390625 18.546875 47.265625 
Q 14.109375 46.140625 10.015625 43.890625 
L 10.015625 52.203125 
Q 14.9375 54.109375 19.578125 55.046875 
Q 24.21875 56 28.609375 56 
Q 40.484375 56 46.34375 49.84375 
Q 52.203125 43.703125 52.203125 31.203125 
z
" id="DejaVuSans-97"/>
     <path d="M 9.421875 75.984375 
L 18.40625 75.984375 
L 18.40625 0 
L 9.421875 0 
z
" id="DejaVuSans-108"/>
     <path d="M 54.890625 33.015625 
L 54.890625 0 
L 45.90625 0 
L 45.90625 32.71875 
Q 45.90625 40.484375 42.875 44.328125 
Q 39.84375 48.1875 33.796875 48.1875 
Q 26.515625 48.1875 22.3125 43.546875 
Q 18.109375 38.921875 18.109375 30.90625 
L 18.109375 0 
L 9.078125 0 
L 9.078125 54.6875 
L 18.109375 54.6875 
L 18.109375 46.1875 
Q 21.34375 51.125 25.703125 53.5625 
Q 30.078125 56 35.796875 56 
Q 45.21875 56 50.046875 50.171875 
Q 54.890625 44.34375 54.890625 33.015625 
z
" id="DejaVuSans-110"/>
     <path d="M 41.109375 46.296875 
Q 39.59375 47.171875 37.8125 47.578125 
Q 36.03125 48 33.890625 48 
Q 26.265625 48 22.1875 43.046875 
Q 18.109375 38.09375 18.109375 28.8125 
L 18.109375 0 
L 9.078125 0 
L 9.078125 54.6875 
L 18.109375 54.6875 
L 18.109375 46.1875 
Q 20.953125 51.171875 25.484375 53.578125 
Q 30.03125 56 36.53125 56 
Q 37.453125 56 38.578125 55.875 
Q 39.703125 55.765625 41.0625 55.515625 
z
" id="DejaVuSans-114"/>
     <path d="M 48.78125 52.59375 
L 48.78125 44.1875 
Q 44.96875 46.296875 41.140625 47.34375 
Q 37.3125 48.390625 33.40625 48.390625 
Q 24.65625 48.390625 19.8125 42.84375 
Q 14.984375 37.3125 14.984375 27.296875 
Q 14.984375 17.28125 19.8125 11.734375 
Q 24.65625 6.203125 33.40625 6.203125 
Q 37.3125 6.203125 41.140625 7.25 
Q 44.96875 8.296875 48.78125 10.40625 
L 48.78125 2.09375 
Q 45.015625 0.34375 40.984375 -0.53125 
Q 36.96875 -1.421875 32.421875 -1.421875 
Q 20.0625 -1.421875 12.78125 6.34375 
Q 5.515625 14.109375 5.515625 27.296875 
Q 5.515625 40.671875 12.859375 48.328125 
Q 20.21875 56 33.015625 56 
Q 37.15625 56 41.109375 55.140625 
Q 45.0625 54.296875 48.78125 52.59375 
z
" id="DejaVuSans-99"/>
     <path d="M 30.609375 48.390625 
Q 23.390625 48.390625 19.1875 42.75 
Q 14.984375 37.109375 14.984375 27.296875 
Q 14.984375 17.484375 19.15625 11.84375 
Q 23.34375 6.203125 30.609375 6.203125 
Q 37.796875 6.203125 41.984375 11.859375 
Q 46.1875 17.53125 46.1875 27.296875 
Q 46.1875 37.015625 41.984375 42.703125 
Q 37.796875 48.390625 30.609375 48.390625 
z
M 30.609375 56 
Q 42.328125 56 49.015625 48.375 
Q 55.71875 40.765625 55.71875 27.296875 
Q 55.71875 13.875 49.015625 6.21875 
Q 42.328125 -1.421875 30.609375 -1.421875 
Q 18.84375 -1.421875 12.171875 6.21875 
Q 5.515625 13.875 5.515625 27.296875 
Q 5.515625 40.765625 12.171875 48.375 
Q 18.84375 56 30.609375 56 
z
" id="DejaVuSans-111"/>
     <path d="M 32.171875 -5.078125 
Q 28.375 -14.84375 24.75 -17.8125 
Q 21.140625 -20.796875 15.09375 -20.796875 
L 7.90625 -20.796875 
L 7.90625 -13.28125 
L 13.1875 -13.28125 
Q 16.890625 -13.28125 18.9375 -11.515625 
Q 21 -9.765625 23.484375 -3.21875 
L 25.09375 0.875 
L 2.984375 54.6875 
L 12.5 54.6875 
L 29.59375 11.921875 
L 46.6875 54.6875 
L 56.203125 54.6875 
z
" id="DejaVuSans-121"/>
    </defs>
    <g transform="translate(533.833057 97.68)scale(0.144 -0.144)">
     <use xlink:href="#DejaVuSans-77"/>
     <use x="86.279297" xlink:href="#DejaVuSans-101"/>
     <use x="147.802734" xlink:href="#DejaVuSans-116"/>
     <use x="187.011719" xlink:href="#DejaVuSans-97"/>
     <use x="248.291016" xlink:href="#DejaVuSans-108"/>
     <use x="276.074219" xlink:href="#DejaVuSans-32"/>
     <use x="307.861328" xlink:href="#DejaVuSans-105"/>
     <use x="335.644531" xlink:href="#DejaVuSans-110"/>
     <use x="399.023438" xlink:href="#DejaVuSans-116"/>
     <use x="438.232422" xlink:href="#DejaVuSans-101"/>
     <use x="499.755859" xlink:href="#DejaVuSans-114"/>
     <use x="538.619141" xlink:href="#DejaVuSans-99"/>
     <use x="593.599609" xlink:href="#DejaVuSans-111"/>
     <use x="654.78125" xlink:href="#DejaVuSans-110"/>
     <use x="718.160156" xlink:href="#DejaVuSans-110"/>
     <use x="781.539062" xlink:href="#DejaVuSans-101"/>
     <use x="843.0625" xlink:href="#DejaVuSans-99"/>
     <use x="898.042969" xlink:href="#DejaVuSans-116"/>
     <use x="937.251953" xlink:href="#DejaVuSans-32"/>
     <use x="969.039062" xlink:href="#DejaVuSans-108"/>
     <use x="996.822266" xlink:href="#DejaVuSans-97"/>
     <use x="1058.101562" xlink:href="#DejaVuSans-121"/>
     <use x="1117.28125" xlink:href="#DejaVuSans-101"/>
     <use x="1178.804688" xlink:href="#DejaVuSans-114"/>
     <use x="1219.917969" xlink:href="#DejaVuSans-115"/>
    </g>
   </g>
  </g>
  <g id="axes_3">
   <g id="patch_12">
    <path d="M 108 756 
L 412.363636 756 
L 412.363636 459.490909 
L 108 459.490909 
z
" style="fill:#e5e5e5;"/>
   </g>
   <g id="matplotlib.axis_5">
    <g id="xtick_13">
     <g id="line2d_91">
      <path clip-path="url(#p3f1d532bed)" d="M 109.804527 756 
L 109.804527 459.490909 
" style="fill:none;stroke:#ffffff;stroke-linecap:square;stroke-width:1.5;"/>
     </g>
     <g id="line2d_92">
      <g>
       <use style="fill:#555555;stroke:#555555;stroke-width:1.875;" x="109.804527" xlink:href="#md07a66e8d9" y="756"/>
      </g>
     </g>
     <g id="text_28">
      <!-- 1970 -->
      <g style="fill:#555555;" transform="translate(88.808277 781.037422)scale(0.165 -0.165)">
       <use xlink:href="#DejaVuSans-49"/>
       <use x="63.623047" xlink:href="#DejaVuSans-57"/>
       <use x="127.246094" xlink:href="#DejaVuSans-55"/>
       <use x="190.869141" xlink:href="#DejaVuSans-48"/>
      </g>
     </g>
    </g>
    <g id="xtick_14">
     <g id="line2d_93">
      <path clip-path="url(#p3f1d532bed)" d="M 169.955444 756 
L 169.955444 459.490909 
" style="fill:none;stroke:#ffffff;stroke-linecap:square;stroke-width:1.5;"/>
     </g>
     <g id="line2d_94">
      <g>
       <use style="fill:#555555;stroke:#555555;stroke-width:1.875;" x="169.955444" xlink:href="#md07a66e8d9" y="756"/>
      </g>
     </g>
     <g id="text_29">
      <!-- 1980 -->
      <g style="fill:#555555;" transform="translate(148.959194 781.037422)scale(0.165 -0.165)">
       <use xlink:href="#DejaVuSans-49"/>
       <use x="63.623047" xlink:href="#DejaVuSans-57"/>
       <use x="127.246094" xlink:href="#DejaVuSans-56"/>
       <use x="190.869141" xlink:href="#DejaVuSans-48"/>
      </g>
     </g>
    </g>
    <g id="xtick_15">
     <g id="line2d_95">
      <path clip-path="url(#p3f1d532bed)" d="M 230.10636 756 
L 230.10636 459.490909 
" style="fill:none;stroke:#ffffff;stroke-linecap:square;stroke-width:1.5;"/>
     </g>
     <g id="line2d_96">
      <g>
       <use style="fill:#555555;stroke:#555555;stroke-width:1.875;" x="230.10636" xlink:href="#md07a66e8d9" y="756"/>
      </g>
     </g>
     <g id="text_30">
      <!-- 1990 -->
      <g style="fill:#555555;" transform="translate(209.11011 781.037422)scale(0.165 -0.165)">
       <use xlink:href="#DejaVuSans-49"/>
       <use x="63.623047" xlink:href="#DejaVuSans-57"/>
       <use x="127.246094" xlink:href="#DejaVuSans-57"/>
       <use x="190.869141" xlink:href="#DejaVuSans-48"/>
      </g>
     </g>
    </g>
    <g id="xtick_16">
     <g id="line2d_97">
      <path clip-path="url(#p3f1d532bed)" d="M 290.257276 756 
L 290.257276 459.490909 
" style="fill:none;stroke:#ffffff;stroke-linecap:square;stroke-width:1.5;"/>
     </g>
     <g id="line2d_98">
      <g>
       <use style="fill:#555555;stroke:#555555;stroke-width:1.875;" x="290.257276" xlink:href="#md07a66e8d9" y="756"/>
      </g>
     </g>
     <g id="text_31">
      <!-- 2000 -->
      <g style="fill:#555555;" transform="translate(269.261026 781.037422)scale(0.165 -0.165)">
       <use xlink:href="#DejaVuSans-50"/>
       <use x="63.623047" xlink:href="#DejaVuSans-48"/>
       <use x="127.246094" xlink:href="#DejaVuSans-48"/>
       <use x="190.869141" xlink:href="#DejaVuSans-48"/>
      </g>
     </g>
    </g>
    <g id="xtick_17">
     <g id="line2d_99">
      <path clip-path="url(#p3f1d532bed)" d="M 350.408193 756 
L 350.408193 459.490909 
" style="fill:none;stroke:#ffffff;stroke-linecap:square;stroke-width:1.5;"/>
     </g>
     <g id="line2d_100">
      <g>
       <use style="fill:#555555;stroke:#555555;stroke-width:1.875;" x="350.408193" xlink:href="#md07a66e8d9" y="756"/>
      </g>
     </g>
     <g id="text_32">
      <!-- 2010 -->
      <g style="fill:#555555;" transform="translate(329.411943 781.037422)scale(0.165 -0.165)">
       <use xlink:href="#DejaVuSans-50"/>
       <use x="63.623047" xlink:href="#DejaVuSans-48"/>
       <use x="127.246094" xlink:href="#DejaVuSans-49"/>
       <use x="190.869141" xlink:href="#DejaVuSans-48"/>
      </g>
     </g>
    </g>
    <g id="xtick_18">
     <g id="line2d_101">
      <path clip-path="url(#p3f1d532bed)" d="M 410.559109 756 
L 410.559109 459.490909 
" style="fill:none;stroke:#ffffff;stroke-linecap:square;stroke-width:1.5;"/>
     </g>
     <g id="line2d_102">
      <g>
       <use style="fill:#555555;stroke:#555555;stroke-width:1.875;" x="410.559109" xlink:href="#md07a66e8d9" y="756"/>
      </g>
     </g>
     <g id="text_33">
      <!-- 2020 -->
      <g style="fill:#555555;" transform="translate(389.562859 781.037422)scale(0.165 -0.165)">
       <use xlink:href="#DejaVuSans-50"/>
       <use x="63.623047" xlink:href="#DejaVuSans-48"/>
       <use x="127.246094" xlink:href="#DejaVuSans-50"/>
       <use x="190.869141" xlink:href="#DejaVuSans-48"/>
      </g>
     </g>
    </g>
   </g>
   <g id="matplotlib.axis_6">
    <g id="ytick_54">
     <g id="line2d_103">
      <path clip-path="url(#p3f1d532bed)" d="M 108 742.522314 
L 412.363636 742.522314 
" style="fill:none;stroke:#ffffff;stroke-linecap:square;stroke-width:1.5;"/>
     </g>
     <g id="line2d_104">
      <g>
       <use style="fill:#555555;stroke:#555555;stroke-width:1.875;" x="108" xlink:href="#m587f3ce99d" y="742.522314"/>
      </g>
     </g>
     <g id="text_34">
      <!-- $\mathdefault{10^{1}}$ -->
      <g style="fill:#555555;" transform="translate(66.46 748.791025)scale(0.165 -0.165)">
       <use transform="translate(0 0.684375)" xlink:href="#DejaVuSans-49"/>
       <use transform="translate(63.623047 0.684375)" xlink:href="#DejaVuSans-48"/>
       <use transform="translate(128.203125 38.965625)scale(0.7)" xlink:href="#DejaVuSans-49"/>
      </g>
     </g>
    </g>
    <g id="ytick_55">
     <g id="line2d_105">
      <path clip-path="url(#p3f1d532bed)" d="M 108 649.671689 
L 412.363636 649.671689 
" style="fill:none;stroke:#ffffff;stroke-linecap:square;stroke-width:1.5;"/>
     </g>
     <g id="line2d_106">
      <g>
       <use style="fill:#555555;stroke:#555555;stroke-width:1.875;" x="108" xlink:href="#m587f3ce99d" y="649.671689"/>
      </g>
     </g>
     <g id="text_35">
      <!-- $\mathdefault{10^{2}}$ -->
      <g style="fill:#555555;" transform="translate(66.46 655.9404)scale(0.165 -0.165)">
       <use transform="translate(0 0.765625)" xlink:href="#DejaVuSans-49"/>
       <use transform="translate(63.623047 0.765625)" xlink:href="#DejaVuSans-48"/>
       <use transform="translate(128.203125 39.046875)scale(0.7)" xlink:href="#DejaVuSans-50"/>
      </g>
     </g>
    </g>
    <g id="ytick_56">
     <g id="line2d_107">
      <path clip-path="url(#p3f1d532bed)" d="M 108 556.821065 
L 412.363636 556.821065 
" style="fill:none;stroke:#ffffff;stroke-linecap:square;stroke-width:1.5;"/>
     </g>
     <g id="line2d_108">
      <g>
       <use style="fill:#555555;stroke:#555555;stroke-width:1.875;" x="108" xlink:href="#m587f3ce99d" y="556.821065"/>
      </g>
     </g>
     <g id="text_36">
      <!-- $\mathdefault{10^{3}}$ -->
      <g style="fill:#555555;" transform="translate(66.46 563.089775)scale(0.165 -0.165)">
       <use transform="translate(0 0.765625)" xlink:href="#DejaVuSans-49"/>
       <use transform="translate(63.623047 0.765625)" xlink:href="#DejaVuSans-48"/>
       <use transform="translate(128.203125 39.046875)scale(0.7)" xlink:href="#DejaVuSans-51"/>
      </g>
     </g>
    </g>
    <g id="ytick_57">
     <g id="line2d_109">
      <path clip-path="url(#p3f1d532bed)" d="M 108 463.97044 
L 412.363636 463.97044 
" style="fill:none;stroke:#ffffff;stroke-linecap:square;stroke-width:1.5;"/>
     </g>
     <g id="line2d_110">
      <g>
       <use style="fill:#555555;stroke:#555555;stroke-width:1.875;" x="108" xlink:href="#m587f3ce99d" y="463.97044"/>
      </g>
     </g>
     <g id="text_37">
      <!-- $\mathdefault{10^{4}}$ -->
      <g style="fill:#555555;" transform="translate(66.46 470.239151)scale(0.165 -0.165)">
       <use transform="translate(0 0.684375)" xlink:href="#DejaVuSans-49"/>
       <use transform="translate(63.623047 0.684375)" xlink:href="#DejaVuSans-48"/>
       <use transform="translate(128.203125 38.965625)scale(0.7)" xlink:href="#DejaVuSans-52"/>
      </g>
     </g>
    </g>
    <g id="ytick_58">
     <g id="line2d_111">
      <g>
       <use style="fill:#555555;stroke:#555555;stroke-width:1.5;" x="108" xlink:href="#mb3a4c4c439" y="751.520469"/>
      </g>
     </g>
    </g>
    <g id="ytick_59">
     <g id="line2d_112">
      <g>
       <use style="fill:#555555;stroke:#555555;stroke-width:1.5;" x="108" xlink:href="#mb3a4c4c439" y="746.770926"/>
      </g>
     </g>
    </g>
    <g id="ytick_60">
     <g id="line2d_113">
      <g>
       <use style="fill:#555555;stroke:#555555;stroke-width:1.5;" x="108" xlink:href="#mb3a4c4c439" y="714.571491"/>
      </g>
     </g>
    </g>
    <g id="ytick_61">
     <g id="line2d_114">
      <g>
       <use style="fill:#555555;stroke:#555555;stroke-width:1.5;" x="108" xlink:href="#mb3a4c4c439" y="698.221307"/>
      </g>
     </g>
    </g>
    <g id="ytick_62">
     <g id="line2d_115">
      <g>
       <use style="fill:#555555;stroke:#555555;stroke-width:1.5;" x="108" xlink:href="#mb3a4c4c439" y="686.620668"/>
      </g>
     </g>
    </g>
    <g id="ytick_63">
     <g id="line2d_116">
      <g>
       <use style="fill:#555555;stroke:#555555;stroke-width:1.5;" x="108" xlink:href="#mb3a4c4c439" y="677.622512"/>
      </g>
     </g>
    </g>
    <g id="ytick_64">
     <g id="line2d_117">
      <g>
       <use style="fill:#555555;stroke:#555555;stroke-width:1.5;" x="108" xlink:href="#mb3a4c4c439" y="670.270484"/>
      </g>
     </g>
    </g>
    <g id="ytick_65">
     <g id="line2d_118">
      <g>
       <use style="fill:#555555;stroke:#555555;stroke-width:1.5;" x="108" xlink:href="#mb3a4c4c439" y="664.054433"/>
      </g>
     </g>
    </g>
    <g id="ytick_66">
     <g id="line2d_119">
      <g>
       <use style="fill:#555555;stroke:#555555;stroke-width:1.5;" x="108" xlink:href="#mb3a4c4c439" y="658.669845"/>
      </g>
     </g>
    </g>
    <g id="ytick_67">
     <g id="line2d_120">
      <g>
       <use style="fill:#555555;stroke:#555555;stroke-width:1.5;" x="108" xlink:href="#mb3a4c4c439" y="653.920301"/>
      </g>
     </g>
    </g>
    <g id="ytick_68">
     <g id="line2d_121">
      <g>
       <use style="fill:#555555;stroke:#555555;stroke-width:1.5;" x="108" xlink:href="#mb3a4c4c439" y="621.720866"/>
      </g>
     </g>
    </g>
    <g id="ytick_69">
     <g id="line2d_122">
      <g>
       <use style="fill:#555555;stroke:#555555;stroke-width:1.5;" x="108" xlink:href="#mb3a4c4c439" y="605.370683"/>
      </g>
     </g>
    </g>
    <g id="ytick_70">
     <g id="line2d_123">
      <g>
       <use style="fill:#555555;stroke:#555555;stroke-width:1.5;" x="108" xlink:href="#mb3a4c4c439" y="593.770043"/>
      </g>
     </g>
    </g>
    <g id="ytick_71">
     <g id="line2d_124">
      <g>
       <use style="fill:#555555;stroke:#555555;stroke-width:1.5;" x="108" xlink:href="#mb3a4c4c439" y="584.771888"/>
      </g>
     </g>
    </g>
    <g id="ytick_72">
     <g id="line2d_125">
      <g>
       <use style="fill:#555555;stroke:#555555;stroke-width:1.5;" x="108" xlink:href="#mb3a4c4c439" y="577.41986"/>
      </g>
     </g>
    </g>
    <g id="ytick_73">
     <g id="line2d_126">
      <g>
       <use style="fill:#555555;stroke:#555555;stroke-width:1.5;" x="108" xlink:href="#mb3a4c4c439" y="571.203808"/>
      </g>
     </g>
    </g>
    <g id="ytick_74">
     <g id="line2d_127">
      <g>
       <use style="fill:#555555;stroke:#555555;stroke-width:1.5;" x="108" xlink:href="#mb3a4c4c439" y="565.81922"/>
      </g>
     </g>
    </g>
    <g id="ytick_75">
     <g id="line2d_128">
      <g>
       <use style="fill:#555555;stroke:#555555;stroke-width:1.5;" x="108" xlink:href="#mb3a4c4c439" y="561.069676"/>
      </g>
     </g>
    </g>
    <g id="ytick_76">
     <g id="line2d_129">
      <g>
       <use style="fill:#555555;stroke:#555555;stroke-width:1.5;" x="108" xlink:href="#mb3a4c4c439" y="528.870241"/>
      </g>
     </g>
    </g>
    <g id="ytick_77">
     <g id="line2d_130">
      <g>
       <use style="fill:#555555;stroke:#555555;stroke-width:1.5;" x="108" xlink:href="#mb3a4c4c439" y="512.520058"/>
      </g>
     </g>
    </g>
    <g id="ytick_78">
     <g id="line2d_131">
      <g>
       <use style="fill:#555555;stroke:#555555;stroke-width:1.5;" x="108" xlink:href="#mb3a4c4c439" y="500.919418"/>
      </g>
     </g>
    </g>
    <g id="ytick_79">
     <g id="line2d_132">
      <g>
       <use style="fill:#555555;stroke:#555555;stroke-width:1.5;" x="108" xlink:href="#mb3a4c4c439" y="491.921263"/>
      </g>
     </g>
    </g>
    <g id="ytick_80">
     <g id="line2d_133">
      <g>
       <use style="fill:#555555;stroke:#555555;stroke-width:1.5;" x="108" xlink:href="#mb3a4c4c439" y="484.569235"/>
      </g>
     </g>
    </g>
    <g id="ytick_81">
     <g id="line2d_134">
      <g>
       <use style="fill:#555555;stroke:#555555;stroke-width:1.5;" x="108" xlink:href="#mb3a4c4c439" y="478.353184"/>
      </g>
     </g>
    </g>
    <g id="ytick_82">
     <g id="line2d_135">
      <g>
       <use style="fill:#555555;stroke:#555555;stroke-width:1.5;" x="108" xlink:href="#mb3a4c4c439" y="472.968595"/>
      </g>
     </g>
    </g>
    <g id="ytick_83">
     <g id="line2d_136">
      <g>
       <use style="fill:#555555;stroke:#555555;stroke-width:1.5;" x="108" xlink:href="#mb3a4c4c439" y="468.219051"/>
      </g>
     </g>
    </g>
    <g id="text_38">
     <!-- $nm$ -->
     <g style="fill:#555555;" transform="translate(59.964375 617.405455)rotate(-90)scale(0.12 -0.12)">
      <use xlink:href="#DejaVuSans-Oblique-110"/>
      <use transform="translate(63.378906 0)" xlink:href="#DejaVuSans-Oblique-109"/>
     </g>
    </g>
   </g>
   <g id="line2d_137">
    <path clip-path="url(#p3f1d532bed)" d="M 121.834711 472.968595 
L 145.895077 491.921263 
L 151.910169 512.520058 
L 163.940352 528.870241 
L 181.985627 540.470881 
L 212.061085 556.821065 
L 212.061085 565.81922 
L 254.166727 584.771888 
L 260.181818 599.154631 
L 272.212001 612.722711 
L 284.242185 625.969478 
L 296.272368 639.091978 
L 302.28746 653.920301 
L 320.332734 667.042801 
L 326.347826 681.871124 
L 344.393101 695.618823 
L 356.423284 710.728154 
L 374.468559 728.954235 
L 398.528926 742.522314 
" style="fill:none;stroke:#e24a33;stroke-linecap:square;stroke-width:2.25;"/>
   </g>
   <g id="line2d_138">
    <path clip-path="url(#p3f1d532bed)" d="M 121.834711 472.968595 
L 145.895077 491.921263 
L 151.910169 512.520058 
L 163.940352 528.870241 
L 181.985627 540.470881 
L 212.061085 556.821065 
L 212.061085 565.81922 
L 254.166727 584.771888 
L 260.181818 599.154631 
L 272.212001 621.720866 
L 284.242185 639.091978 
L 296.272368 670.270484 
L 302.28746 677.622512 
L 320.332734 692.005256 
L 326.347826 692.005256 
L 344.393101 698.221307 
L 356.423284 703.991779 
L 374.468559 714.571491 
L 398.528926 714.571491 
" style="fill:none;stroke:#348abd;stroke-linecap:square;stroke-width:2.25;"/>
   </g>
   <g id="patch_13">
    <path d="M 108 756 
L 108 459.490909 
" style="fill:none;stroke:#ffffff;stroke-linecap:square;stroke-linejoin:miter;"/>
   </g>
   <g id="patch_14">
    <path d="M 412.363636 756 
L 412.363636 459.490909 
" style="fill:none;stroke:#ffffff;stroke-linecap:square;stroke-linejoin:miter;"/>
   </g>
   <g id="patch_15">
    <path d="M 108 756 
L 412.363636 756 
" style="fill:none;stroke:#ffffff;stroke-linecap:square;stroke-linejoin:miter;"/>
   </g>
   <g id="patch_16">
    <path d="M 108 459.490909 
L 412.363636 459.490909 
" style="fill:none;stroke:#ffffff;stroke-linecap:square;stroke-linejoin:miter;"/>
   </g>
   <g id="text_39">
    <!-- Transistor scaling -->
    <defs>
     <path d="M -0.296875 72.90625 
L 61.375 72.90625 
L 61.375 64.59375 
L 35.5 64.59375 
L 35.5 0 
L 25.59375 0 
L 25.59375 64.59375 
L -0.296875 64.59375 
z
" id="DejaVuSans-84"/>
     <path d="M 45.40625 27.984375 
Q 45.40625 37.75 41.375 43.109375 
Q 37.359375 48.484375 30.078125 48.484375 
Q 22.859375 48.484375 18.828125 43.109375 
Q 14.796875 37.75 14.796875 27.984375 
Q 14.796875 18.265625 18.828125 12.890625 
Q 22.859375 7.515625 30.078125 7.515625 
Q 37.359375 7.515625 41.375 12.890625 
Q 45.40625 18.265625 45.40625 27.984375 
z
M 54.390625 6.78125 
Q 54.390625 -7.171875 48.1875 -13.984375 
Q 42 -20.796875 29.203125 -20.796875 
Q 24.46875 -20.796875 20.265625 -20.09375 
Q 16.0625 -19.390625 12.109375 -17.921875 
L 12.109375 -9.1875 
Q 16.0625 -11.328125 19.921875 -12.34375 
Q 23.78125 -13.375 27.78125 -13.375 
Q 36.625 -13.375 41.015625 -8.765625 
Q 45.40625 -4.15625 45.40625 5.171875 
L 45.40625 9.625 
Q 42.625 4.78125 38.28125 2.390625 
Q 33.9375 0 27.875 0 
Q 17.828125 0 11.671875 7.65625 
Q 5.515625 15.328125 5.515625 27.984375 
Q 5.515625 40.671875 11.671875 48.328125 
Q 17.828125 56 27.875 56 
Q 33.9375 56 38.28125 53.609375 
Q 42.625 51.21875 45.40625 46.390625 
L 45.40625 54.6875 
L 54.390625 54.6875 
z
" id="DejaVuSans-103"/>
    </defs>
    <g transform="translate(197.676818 453.490909)scale(0.144 -0.144)">
     <use xlink:href="#DejaVuSans-84"/>
     <use x="46.333984" xlink:href="#DejaVuSans-114"/>
     <use x="87.447266" xlink:href="#DejaVuSans-97"/>
     <use x="148.726562" xlink:href="#DejaVuSans-110"/>
     <use x="212.105469" xlink:href="#DejaVuSans-115"/>
     <use x="264.205078" xlink:href="#DejaVuSans-105"/>
     <use x="291.988281" xlink:href="#DejaVuSans-115"/>
     <use x="344.087891" xlink:href="#DejaVuSans-116"/>
     <use x="383.296875" xlink:href="#DejaVuSans-111"/>
     <use x="444.478516" xlink:href="#DejaVuSans-114"/>
     <use x="485.591797" xlink:href="#DejaVuSans-32"/>
     <use x="517.378906" xlink:href="#DejaVuSans-115"/>
     <use x="569.478516" xlink:href="#DejaVuSans-99"/>
     <use x="624.458984" xlink:href="#DejaVuSans-97"/>
     <use x="685.738281" xlink:href="#DejaVuSans-108"/>
     <use x="713.521484" xlink:href="#DejaVuSans-105"/>
     <use x="741.304688" xlink:href="#DejaVuSans-110"/>
     <use x="804.683594" xlink:href="#DejaVuSans-103"/>
    </g>
   </g>
   <g id="legend_1">
    <g id="patch_17">
     <path d="M 186.96848 521.128722 
L 400.813636 521.128722 
Q 404.113636 521.128722 404.113636 517.828722 
L 404.113636 471.040909 
Q 404.113636 467.740909 400.813636 467.740909 
L 186.96848 467.740909 
Q 183.66848 467.740909 183.66848 471.040909 
L 183.66848 517.828722 
Q 183.66848 521.128722 186.96848 521.128722 
z
" style="fill:#e5e5e5;opacity:0.8;stroke:#cccccc;stroke-linejoin:miter;stroke-width:0.5;"/>
    </g>
    <g id="line2d_139">
     <path d="M 190.26848 481.103331 
L 223.26848 481.103331 
" style="fill:none;stroke:#e24a33;stroke-linecap:square;stroke-width:2.25;"/>
    </g>
    <g id="line2d_140"/>
    <g id="text_40">
     <!-- Process node name -->
     <defs>
      <path d="M 19.671875 64.796875 
L 19.671875 37.40625 
L 32.078125 37.40625 
Q 38.96875 37.40625 42.71875 40.96875 
Q 46.484375 44.53125 46.484375 51.125 
Q 46.484375 57.671875 42.71875 61.234375 
Q 38.96875 64.796875 32.078125 64.796875 
z
M 9.8125 72.90625 
L 32.078125 72.90625 
Q 44.34375 72.90625 50.609375 67.359375 
Q 56.890625 61.8125 56.890625 51.125 
Q 56.890625 40.328125 50.609375 34.8125 
Q 44.34375 29.296875 32.078125 29.296875 
L 19.671875 29.296875 
L 19.671875 0 
L 9.8125 0 
z
" id="DejaVuSans-80"/>
      <path d="M 45.40625 46.390625 
L 45.40625 75.984375 
L 54.390625 75.984375 
L 54.390625 0 
L 45.40625 0 
L 45.40625 8.203125 
Q 42.578125 3.328125 38.25 0.953125 
Q 33.9375 -1.421875 27.875 -1.421875 
Q 17.96875 -1.421875 11.734375 6.484375 
Q 5.515625 14.40625 5.515625 27.296875 
Q 5.515625 40.1875 11.734375 48.09375 
Q 17.96875 56 27.875 56 
Q 33.9375 56 38.25 53.625 
Q 42.578125 51.265625 45.40625 46.390625 
z
M 14.796875 27.296875 
Q 14.796875 17.390625 18.875 11.75 
Q 22.953125 6.109375 30.078125 6.109375 
Q 37.203125 6.109375 41.296875 11.75 
Q 45.40625 17.390625 45.40625 27.296875 
Q 45.40625 37.203125 41.296875 42.84375 
Q 37.203125 48.484375 30.078125 48.484375 
Q 22.953125 48.484375 18.875 42.84375 
Q 14.796875 37.203125 14.796875 27.296875 
z
" id="DejaVuSans-100"/>
      <path d="M 52 44.1875 
Q 55.375 50.25 60.0625 53.125 
Q 64.75 56 71.09375 56 
Q 79.640625 56 84.28125 50.015625 
Q 88.921875 44.046875 88.921875 33.015625 
L 88.921875 0 
L 79.890625 0 
L 79.890625 32.71875 
Q 79.890625 40.578125 77.09375 44.375 
Q 74.3125 48.1875 68.609375 48.1875 
Q 61.625 48.1875 57.5625 43.546875 
Q 53.515625 38.921875 53.515625 30.90625 
L 53.515625 0 
L 44.484375 0 
L 44.484375 32.71875 
Q 44.484375 40.625 41.703125 44.40625 
Q 38.921875 48.1875 33.109375 48.1875 
Q 26.21875 48.1875 22.15625 43.53125 
Q 18.109375 38.875 18.109375 30.90625 
L 18.109375 0 
L 9.078125 0 
L 9.078125 54.6875 
L 18.109375 54.6875 
L 18.109375 46.1875 
Q 21.1875 51.21875 25.484375 53.609375 
Q 29.78125 56 35.6875 56 
Q 41.65625 56 45.828125 52.96875 
Q 50 49.953125 52 44.1875 
z
" id="DejaVuSans-109"/>
     </defs>
     <g transform="translate(236.46848 486.878331)scale(0.165 -0.165)">
      <use xlink:href="#DejaVuSans-80"/>
      <use x="58.552734" xlink:href="#DejaVuSans-114"/>
      <use x="97.416016" xlink:href="#DejaVuSans-111"/>
      <use x="158.597656" xlink:href="#DejaVuSans-99"/>
      <use x="213.578125" xlink:href="#DejaVuSans-101"/>
      <use x="275.101562" xlink:href="#DejaVuSans-115"/>
      <use x="327.201172" xlink:href="#DejaVuSans-115"/>
      <use x="379.300781" xlink:href="#DejaVuSans-32"/>
      <use x="411.087891" xlink:href="#DejaVuSans-110"/>
      <use x="474.466797" xlink:href="#DejaVuSans-111"/>
      <use x="535.648438" xlink:href="#DejaVuSans-100"/>
      <use x="599.125" xlink:href="#DejaVuSans-101"/>
      <use x="660.648438" xlink:href="#DejaVuSans-32"/>
      <use x="692.435547" xlink:href="#DejaVuSans-110"/>
      <use x="755.814453" xlink:href="#DejaVuSans-97"/>
      <use x="817.09375" xlink:href="#DejaVuSans-109"/>
      <use x="914.505859" xlink:href="#DejaVuSans-101"/>
     </g>
    </g>
    <g id="line2d_141">
     <path d="M 190.26848 505.322237 
L 223.26848 505.322237 
" style="fill:none;stroke:#348abd;stroke-linecap:square;stroke-width:2.25;"/>
    </g>
    <g id="line2d_142"/>
    <g id="text_41">
     <!-- Actual gate length -->
     <defs>
      <path d="M 8.5 21.578125 
L 8.5 54.6875 
L 17.484375 54.6875 
L 17.484375 21.921875 
Q 17.484375 14.15625 20.5 10.265625 
Q 23.53125 6.390625 29.59375 6.390625 
Q 36.859375 6.390625 41.078125 11.03125 
Q 45.3125 15.671875 45.3125 23.6875 
L 45.3125 54.6875 
L 54.296875 54.6875 
L 54.296875 0 
L 45.3125 0 
L 45.3125 8.40625 
Q 42.046875 3.421875 37.71875 1 
Q 33.40625 -1.421875 27.6875 -1.421875 
Q 18.265625 -1.421875 13.375 4.4375 
Q 8.5 10.296875 8.5 21.578125 
z
M 31.109375 56 
z
" id="DejaVuSans-117"/>
      <path d="M 54.890625 33.015625 
L 54.890625 0 
L 45.90625 0 
L 45.90625 32.71875 
Q 45.90625 40.484375 42.875 44.328125 
Q 39.84375 48.1875 33.796875 48.1875 
Q 26.515625 48.1875 22.3125 43.546875 
Q 18.109375 38.921875 18.109375 30.90625 
L 18.109375 0 
L 9.078125 0 
L 9.078125 75.984375 
L 18.109375 75.984375 
L 18.109375 46.1875 
Q 21.34375 51.125 25.703125 53.5625 
Q 30.078125 56 35.796875 56 
Q 45.21875 56 50.046875 50.171875 
Q 54.890625 44.34375 54.890625 33.015625 
z
" id="DejaVuSans-104"/>
     </defs>
     <g transform="translate(236.46848 511.097237)scale(0.165 -0.165)">
      <use xlink:href="#DejaVuSans-65"/>
      <use x="66.658203" xlink:href="#DejaVuSans-99"/>
      <use x="121.638672" xlink:href="#DejaVuSans-116"/>
      <use x="160.847656" xlink:href="#DejaVuSans-117"/>
      <use x="224.226562" xlink:href="#DejaVuSans-97"/>
      <use x="285.505859" xlink:href="#DejaVuSans-108"/>
      <use x="313.289062" xlink:href="#DejaVuSans-32"/>
      <use x="345.076172" xlink:href="#DejaVuSans-103"/>
      <use x="408.552734" xlink:href="#DejaVuSans-97"/>
      <use x="469.832031" xlink:href="#DejaVuSans-116"/>
      <use x="509.041016" xlink:href="#DejaVuSans-101"/>
      <use x="570.564453" xlink:href="#DejaVuSans-32"/>
      <use x="602.351562" xlink:href="#DejaVuSans-108"/>
      <use x="630.134766" xlink:href="#DejaVuSans-101"/>
      <use x="691.658203" xlink:href="#DejaVuSans-110"/>
      <use x="755.037109" xlink:href="#DejaVuSans-103"/>
      <use x="818.513672" xlink:href="#DejaVuSans-116"/>
      <use x="857.722656" xlink:href="#DejaVuSans-104"/>
     </g>
    </g>
   </g>
  </g>
 </g>
 <defs>
  <clipPath id="p9b5fff554e">
   <rect height="296.509091" width="304.363636" x="108" y="103.68"/>
  </clipPath>
  <clipPath id="p3995674499">
   <rect height="296.509091" width="304.363636" x="473.236364" y="103.68"/>
  </clipPath>
  <clipPath id="p3f1d532bed">
   <rect height="296.509091" width="304.363636" x="108" y="459.490909"/>
  </clipPath>
 </defs>
</svg>
